<svg xmlns="http://www.w3.org/2000/svg" viewBox="0 0 21.1 21.1"><path d="M17.2 0H3.9C1.7 0 0 1.7 0 3.9v13.3c0 2.1 1.7 3.9 3.9 3.9h13.3c2.1 0 3.9-1.7 3.9-3.9V3.9c0-2.2-1.8-3.9-3.9-3.9zM7.7 8c.7-.8 1.7-1.3 2.8-1.3s2.1.5 2.8 1.3c.6.7.9 1.5.9 2.4 0 2.1-1.7 3.7-3.8 3.7s-3.8-1.7-3.8-3.7c.1-.9.5-1.8 1.1-2.4zm9.1-5.4c.8 0 1.5.6 1.5 1.4 0 .8-.6 1.5-1.4 1.5-.8 0-1.5-.6-1.5-1.4-.1-.8.6-1.5 1.4-1.5zm3.1 14.6c0 1.5-1.2 2.7-2.7 2.7H3.9c-1.5 0-2.7-1.2-2.7-2.7V8h5c-.4.7-.6 1.5-.6 2.4 0 2.7 2.2 4.9 5 4.9 2.7 0 4.9-2.2 4.9-4.9 0-.9-.2-1.7-.7-2.4h5.1v9.2z" fill="gray"/><path d="M19.9 3.9c0-1.5-1.2-2.7-2.7-2.7H3.9c-1.5 0-2.7 1.2-2.7 2.7v4.2h5c-.4.7-.6 1.6-.6 2.4 0 2.7 2.2 5 5 5 2.7 0 4.9-2.2 4.9-5 0-.9-.2-1.7-.7-2.5h5.1V3.9zm-9.4 10.3c-2.1 0-3.8-1.7-3.8-3.8 0-.9.3-1.8.9-2.5.7-.8 1.7-1.3 2.8-1.3s2.1.5 2.8 1.3c.6.7.9 1.5.9 2.5.1 2.2-1.5 3.8-3.6 3.8zm6.4-8.6c-.8 0-1.5-.6-1.5-1.4 0-.8.6-1.5 1.4-1.5.8 0 1.5.6 1.5 1.4.1.8-.6 1.5-1.4 1.5z" fill="gray"/><path d="M14.8 8c-.8-1.5-2.5-2.5-4.3-2.5-1.9 0-3.5 1-4.3 2.5-.4.7-.6 1.5-.6 2.4 0 2.7 2.2 4.9 5 4.9 2.7 0 4.9-2.2 4.9-4.9-.1-.9-.3-1.7-.7-2.4zm-4.3 6.1c-2.1 0-3.8-1.7-3.8-3.7 0-.9.3-1.8.9-2.4.7-.8 1.7-1.3 2.8-1.3s2.1.5 2.8 1.3c.6.7.9 1.5.9 2.4.1 2.1-1.5 3.7-3.6 3.7zM19.9 8h-5.1M6.2 8h-5" fill="gray"/></svg>