<svg xmlns="http://www.w3.org/2000/svg" viewBox="0 0 197.9 248"><path d="M165.6 47.6c.3-.8.5-1.7.8-2.5-.6.1-1.2.3-1.8.4-.6.1-.7.2-1.2-.2-.8-.7-1-1.5-1-2.4-.1-2.3-1.7-4.2-3-6-1.2-1.8-2.5-3.6-4.3-4.8-.2-.2-.5-.3-.8-.5-.4-.3-.4-.2-.6-.6-.1-.4 0-1-.2-1.4-.2-.5-.9-1-1.3-1.4-.5-.4-1-.9-1.4-1.3.5-.4 1.1-.7 1.6-1.1-1.2-.6-2.5-1.1-3.5-2.1-.9-.9-1.3-2.2-2.1-3.1-1.7-1.9-4-3.2-6.3-4.1-2.3-1-4.6-2-6.1-4.2-.5-.6-1.5-2.4-2.6-1.5-.4.4-.7 1.6-1 2.2-.2.4-.3.7-.5 1.1-.2.5-.3.6-.1 1.1.2.3.4.4.3.7 0 .3-.4.8-.5 1-.3.6-.6 1.7-1 2.2-1 1.1-3.2.6-4.3 0 .9-.6 1.7-1.3 2.6-1.9-.7-.4-1.9-.7-2.5-1.3-.3 0-.4-.2-.3-.5 0-.2.1-.5.1-.7l.3-1.5.3-1.5c0-.3.4-1.3.3-1.5-.2-.3-2-1-2.3-1-1.2-.2-2 2.2-1.9 3.2 0 .3.1.9.3 1.2.2.2 1 .4 1.4.5.2.1.5.2.7.3v.8c-.1.1-1.1.1-1.3.2-.8.2-1.6.5-2.5.5-.3 0-.9 0-1.1-.2-.2-.2-.3-1.2-.4-1.5-.5-1.8-1-3.5-1.6-5.3-.3-.9-.5-1.7-.8-2.6-.2-.6-.3-.7-.9-.9-.4-.2-.9-.4-1.3-.6-.4-.2-1.9-1.1-2.3-1-.4.1-1 1.5-1.2 1.9-.8-.9-1.8-2.3-2.9-2.7-1.7-.6-3.4-1.1-5.1-1.7-.8-.3-1.6-.6-2.4-.8-.8-.2-1.7 0-2.6.1-1.7.2-3.4.4-5.1 1-.4.1-.8.3-1.2.4-.1 0-.6.3-.7.3-.1 0-.2-.3-.3-.4-.6-.4-.8-.9-1.6-1.1-1.1-.3-2.4 0-3.5.2-1.8.2-3.6.5-5.4.8-4 .7-7.9 1.3-11.9 1.9.5.6 1 1.6 1.6 2 .1.3.3.3.5.1.2-.1.5-.1.7-.2.3-.1.7-.2 1-.3.4-.1.9-.3 1.3-.4.3-.1 1.1-.5 1.4-.4.3.1.8.7 1 .9.3.3.6.6.9.8.7.6 1.4 1.3 2.1 1.9.2.2.4.3.6.5.4.1.4.3.1.6-.1.4-.5.8-.7 1.1-1 1.6-2.1 3.2-3.1 4.8-.4-1.7-.7-3.1-1.7-4.6-.1-.2-.5-1-.7-1.1-.6-.7-.6.1-.7.5l-.3 1.5c0 .3-.1.5-.1.8.1.3-.1.5-.4.6-.3.3-.9.5-1.3.7-.3.1-.9.6-1.2.6-.3 0-2.4-1.2-2.4-1.4-.1-.2.7-1.1.8-1.3.3-.4.5-.9.8-1.3.5-.9 1-1.8 1.6-2.7-.5-.1-1-.1-1.5-.3-.8-.4-.9-.6-1.3-1.1-.1-.2-.3-.5-.5-.6-.3-.3-.1-.3-.6-.3-.3 0-.8.1-1.1.2-1.3.3-1.8 1.2-2.2 2.4.5-.4 1-.7 1.4-1.1.1-.1.5-.5.7-.5.1 0 .8.6.9.7L66.7 8c.3.3.3.2.3.6 0 .2-.2.5-.3.7-1 1.3-2.8.5-4 1.3.4.7.9 1.5 1.3 2.2.2.4.5.7.7 1.1.1.1.3.4.3.5 0 .1-.5.6-.6.7-.4.4-1.1 1.5-1.6 1.8-.4.2-1.7-.1-2.1-.4-.6-.3-.6-1.3-1-1.8-.3-.5-1.1-.7-1.6-.4-.5.3-.5.8-.9 1.1-.4.3-1.1.1-1.6-.1-.8-.4-1.5-1.1-2-1.8-.4-.5-.3-.5-1-.5-.4 0-1.8-.2-2.1 0-.4.3.1 1.5-.4 1.8-.3.2-.9.3-1.3.4-.5.1-1 .3-1.5.4-.2.1-.5.1-.7.2-.4.2-.3.1-.4.4-.1.3-.2.8-.3 1.1-.1.4-.3 1-.8 1.3-1.2.8-2.2-.8-2.8-1.6-.5 1.6-.9 3.3-1.6 4.9-.5 1.1-1.6 1.9-2.4 2.7-.5.4-.9.9-1.2 1.4-.3.6-.4 1.2-.9 1.7-1.2 1.2-2.5 2.3-3.6 3.7-.9 1.2-1.8 2.2-3.1 3-.6.3-1.2.6-1.8.8-.5.2-1.9.2-2.2.6-.3.5-.3 1.8-.4 2.3-.1.5-.1 1-.2 1.4-.1.5-.3.7-.7 1.1-.6.7-1.2 1.4-1.8 2-.4.5-.4.4-.9.1-.4-.2-.9-.7-1.3-.5-.3.2-.7.9-1 1.2-.3.4-.6.8-1 1.2L16.4 47c-.3.4-.7.9-1 1.3-.1.1-.2.3-.3.5-.4.4-.2.2-.7.2-.9-.1-1.8-.4-2.7-.5.2.5.5 1 .7 1.4.1.3.5.9.6 1.2 0 .7-1.3 2.2-1.8 2.9-.4.6-1.2 1.3-1.3 2-.1.3 0 .7 0 1.1v1.7c0 .3.1 1 0 1.3-.2.4-.9.5-1.4.7-.3.1-1.2.3-1.5.6-.3.3 0 1.1.1 1.5.1.7 0 .7.5.8.4.1.9 0 1.4 0 1 0 2.1.1 3.1 0 .5-.1.4-.1.9-.5.3-.3.6-.7.9-1 .4-.4.9-.3 1.5-.4.9-.1 1.6-.9 2.3-1.4.4-.3.7-.5 1.1-.8.6-.4.8-.7 1.4-.6.9.1 1.9-.1 2.8-.2 1-.2 1.9-.2 2.9-.3 1.6-.3 3-1.4 4.7-1.3.6 0 .7.1 1.2-.3.3-.3.7-.6 1-.8.5-.3.2-.2.6 0 .2.1.4.3.6.4.5.3 1 .7 1.5 1 0 0 .5.4.6.4.1 0 .5-.4.7-.5.3-.3.7-.5 1.1-.7.9-.4 1.8-.7 2.8-.7.4 0 .8 0 1.2.1.5.1.8.2 1.2-.1.4-.3.6-.8 1.1-.9.4 0 1.2.3 1.6.4 2.1.5 4.3 1.1 6.4 1.6.5.1 1 .3 1.5.4.5.1.6 0 1.1-.2.6-.2 1.3-.3 1.9-.1 1.4.3 2.3 1.7 2.9 2.8.3.6.7.8 1.3 1.1.6.3 1.1.5 1.7.8.5.2 1 .5 1.5.7l.8.4c.4.1.3.1.7-.2.2-.2.7-.9 1-1 .3-.1.9.4 1.1.7.6.5 1.1 1.1 1.3 1.9.1.4.1.8.1 1.2 0 .2-.1.4-.1.5 0 .5 0 .4.4.8s.8.7 1.2 1.1c.5.5.4.8.3 1.5-.1.5-.1 1.1-.2 1.6-.1.6-.1.7-.6 1.1-.8.6-1.5 1.3-2.3 1.9.6.5 1.3 1 1.9 1.5.5.4.3.4.1 1-.2.4-.3.9-.4 1.4-.4 1.6-.4 3.2-.1 4.9.1.8.4 1.7.6 2.5.1.2.3 1.3.5 1.4.1.1.6-.1.7-.1 1.4-.2 2.6-.2 3.6.9-1.7 1.1-3.3 2.1-5 3.2-.7.5-1.5 1-2.2 1.4-.5.3-.5.5-.7 1.1-.1.5-.2 1-.3 1.4-.2.9-.3 1.7-.5 2.6-.1.4-.1.8-.2 1.2 0 .2-.1.4-.1.6 0 .3-.1.4-.4.4-.8.5-1.9.7-2.7 1-.5.2-.6.2-1 .1s-.7-.4-1.1-.6c-.3 1.2-.9 2.4-1.9 3.1-.9.7-1.8.6-2.9.8-.6.1-1.2.6-1.7.9-.6.4-1.2.7-1.9.9-1.6.7-3.3 1.5-4.9 2.3-3.2 1.6-6.3 3.2-9.5 4.7-3.1 1.5-6.4 2.6-9.5 4.1-.7.3-1.3.8-1.9 1.2-.3.2-.7.5-1 .7-.5.3-.6.3-.3.8.9 1.3 1.9 2.7 2.8 4 .2.3.4.7.8.8.2.1.6.1.9.2.5.1.7.1.8.6.1.3 0 .6-.2.8-.5.8-2.1 1.2-2.8 1.6-3.1 1.6-6.6 2.9-9.5 4.9-.5.4-1 .9-1.6 1.2-.7.4-1.5.5-2.2.8-.9.3-2.2 1.1-3.2.8-.5-.1-1.1-.6-1.3-1.1-.2-.5-.1-.2.1-.5.1-.2.4-.3.6-.4.4-.3.7-.6 1.1-.8 1.6-1 3.6-1.7 5.3-2.5 3.7-1.6 7.1-3.7 10.6-5.7-.5-.2-1.1-.8-1.6-.8-.3 0-.5.3-.8.4-.3.1-.6 0-.8 0-.6-.1-1.2-.3-1.8-.1-.2.1-.5.4-.7.4-.2 0-.6-.5-.8-.7.6-.5 1.3-1 1.9-1.4.3-.2.6-.5.9-.7.4-.3.5-.4.3-.9-.5-1.3-1.6-1.2-2.7-.8-3.4 1.3-6.8 2.9-10.3 3.7-2.7.6-5.4 1.4-7.8 2.9-2.3 1.5-3.1 3.6-2.8 6.3.1.9.2 1.9.3 2.8 0 .2 0 .4.1.5.2.6 0 .2.4.4.3.1.6.1.9.3 1.2.7 1.1 2.2.9 3.4 2-.3 3.9-1.1 5.9-1.4 1-.1 2 0 3-.1s2-.4 2.9-.8c1.8-.8 3.4-1.9 5.1-2.9 1.9-1.2 3.8-1.9 5.9-2.6 2.2-.8 4.2-1.8 6.3-2.9.9-.5 1.9-1 2.8-1.5.4-.2 1-.6 1.5-.7.4 0 .2-.4.5.2.3.4.1.4-.2.8-1.5 1.5-3.8 2.4-5.6 3.5-1.8 1.1-3.5 2.4-5.4 3.2-2.2.9-4.4 1.8-6.5 3-1 .6-1.9 1.4-3 1.9-1 .4-1.9.5-2.8 1 .2.3.6.6.8 1 .2.4.2.2 0 .5-.1.2-.4.5-.6.7-.2.2-.7.7-.8 1-.1.3.3.9.5 1.2.4.7 1.1 1.6 1.3 2.4.2.8.2 1.9 0 2.7-.1.4-.4 1-.4 1.4 0 .3.1.3.5.4.4.1 1 0 1.4.2.3.2.9.9.7 1.3-.1.2-.9.5-1.2.6-.5.2-.9.4-1.4.7.7.7.4 1.7.4 2.5 0 .5-.1.9.1 1.3.1.2.2.4.3.5.3.3.3.2.7.2.6-.1.9-.6 1.3-1s.9-.8 1.3-1.1c1-.7 2.2-1.3 3.3-1.9 1.1-.6 2.1-1.1 3-1.9.5-.5 1.4-1.7 2.2-1.7.6 0 1 .3 1.6.2.5-.1 1-.3 1.5-.6.4-.2 1.1-.6 1.5-.6.4 0 .3 0 .5.4s.3.7.5 1.1c.8-1 1.6-1.9 2.4-2.9.3-.4.7-.8 1-1.2.7-.8.6-.1 1.3 0 .4.1.3-.1.6-.5.1-.2.3-.4.4-.6.4-.6.7-1.1 1.1-1.7.2-.3.5-1 .8-1.1.3-.1.7 0 1 0 .7 0 1-.3 1.6-.7 1.2-.8 2.5-1.6 3.8-2.2 1.7-.9 3.4-1.6 5.3-2 .8-.2 1.6-.3 2.5-.3.7 0 .8-.1 1 .4.2.9 0 2.2 0 3.2v4.1c0 .3.1 1 0 1.3-.1.3 0 .1-.4.2-1.2.1-2.4 0-3.6 0 .3 1.5.3 3.3-.9 4.4-.6.6-1.3.9-2.1 1.2-.6.2-.8.4-1.3-.1-.4-.5-.8-.9-1.2-1.4.1 2.1-.4 4.1-2.2 5.3-.3-.5-.7-1.1-1-1.6-.2.5-.6 1.6-1 1.9-.4.3-1.4.3-1.9.4.2.2.9 1.1 1.2 1.1.4 0 .8-.6 1.1-.8 1.4-.8.7 1.8.6 2.4-.1.3-.1.6-.2.9-.1.5-.2.5.3.7.4.2.9.1 1.3-.1.9-.4 1.4-1.3 2.4-1.3-.1.5 0 1.2-.2 1.7s-.8.7-1.3 1c-.7.4-2.3 1-2.6 1.6-.2.4.1 1.1-.1 1.4-.2.3-1.3.4-1.7.5-1 .3-2.4.4-3.1 1.1-.1.1-.2.3-.4.4-.3.2-.3.2-.7.1-.6-.1-1.1-.2-1.7-.3-.6-.1-1-.1-1.4-.6-.3-.4-.7-.8-1-1.1-.2-.2-.4-.4-.5-.6-.3-.4-.2-.3-.6-.2-.4.1-.9.6-1.2.9-.4.3-.6.5-1.1.3-.6-.3-1.1-.5-1.7-.8-.3.9-.5 1.8-.8 2.7-1.1-.6-2.3-.4-3.5-.5-.5 0-1-.1-1.4-.4-.3-.2-.4-.4-.6-.6-.3-.2 0-.2-.3-.2-.2 0-.6.2-.8.3-.5.2-1.6.3-1.9.8-.1.2 0 .9-.2 1.1-.2.1-.9-.1-1.1-.1-.7-.1-.8.1-1.3.5-.5.5-1.2.5-1.9.5-.6 0-1.3 0-1.9.1-.6.1-.6.1-.6.7-.1.4-.1.8-.2 1.2-.2 1.3-.4 2.7-.4 4 .1 1.4.4 2.8 1.1 3.9.2.3.4.6.7.9.4.4.4.5 1 .4.8-.1 1.7-.4 2.4-.1.7.3 1.5.5 2.2.8.8.4 1 1.4 1.8 2 .5.3 1.4.3 2 .4.4.1.7 0 .9.3.4.3.7.8.9 1.2 1.1 1.3 2.2 2.7 3.3 4 .2.3.5.6.7.9.2.2.6.9.9 1.1.5.2 1.4-.1 2-.1 1.4.1 2.6.7 3.7 1.4 1.2.7 2.5 1.5 3 2.9.4 1.2.8 2 2.1 2.6 1.4.6 2.9.8 4.4 1.2.5.1.7.2 1 .5.3.3.6.7.9 1.1.5.6 1 1.2 1.5 1.7.5.6 1.1 1.1 1.5 1.7.5.7.6 1.6.8 2.5.4 1.7.8 3.5.6 5.3-.1.7-.3 2-.9 2.4-.5.4-1.7.4-2.3.6 1.2 1.2 2.3 2.4 3.7 3.4.7.5 1.6 1.1 1.8 2 .3.9-.5 2.6 0 3.2.4.5 1.2.8 1.7 1.2.5.5.6 1.1 1 1.7.7 1.1 1.8 1.7 3 2.1.4.2 1.1.5 1.5.6.4.1 1.1-.2 1.5-.2.5-.1 1-.1 1.5-.1l5.7-.3c.9 0 1.9-.2 2.9-.1.7.1 1.4.5 2.1.7-.6.5-1.2.9-1.7 1.4 1.4 1.6 2.8 3.1 4.2 4.7.6.7 1.5 1.4 1.8 2.2.3.9.4 1.9.6 2.8 1.4-.8 2.1-.1 2.8 1 .3.5.7 1.1 1.2 1.5.2.2.5.4.8.4.5 0 .6-.3.9-.6-.6-.3-2.7-1.1-2.8-1.7-.1-.6.7-.5 1.1-.9.5-.6.4-1.8 1.3-2.2 1.5-.6 1.4 1.8 1.9 2.6.2.3.4.5.7.7.6.3.7 0 .9-.5.5-.9.9-2.3 1.8-2.8.2.9.7 1.6 1.6 1.8.7.1 1.5-.1 2.2.2.6.2 1.3 1 1.7 1.5.7.7 1.1 1.5 1 2.5-.5-.3-.9-.6-1.4-.9-.5-.3-1.1-.8-.7.1.2.4.8 1 .7 1.4-.2.4-1 1.1-1.3 1.4.4.2.9.4 1.3.6.2.1.3.2.5.3.4.1.2.2.6 0 .3-.2.5-.9.8-1 .3-.1 1.3.5 1.5.7.5.2 1 .4 1.5.7.2.1.5.3.7.3.2 0 .7-.4.8-.5 1-.6 2-1.1 3-1.7l2.7-1.5c.5-.3.9-.5 1.4-.8.6-.3.4-.5.3-1.2-.3-2-.6-4.1-.9-6.1-.5.9-1.3 1.7-2.4 1.9-.9.2-1.7-.5-2.6-.3-.2 0-.5.1-.7.2-.4.2-.3.3-.3.7-.1.6-.2 1.2-.4 1.7-.4 1.1-1.1 2-1.9 2.8-1.7-2.3-1.2-5.9-4.3-7.1-.1.6-.2 1.1-.4 1.7-.1.2-.1.5-.2.8-.2.4.1.3-.4.5-.6.2-1.7 0-2.2-.3-.5-.3-.7-.8-.8-1.3-.2-1.2-.3-2.5-.5-3.7-.1-1.2-.3-2.4-.4-3.6-.1-.6-.2-1.2 0-1.7.1-.5.4-1.1.6-1.6.4-1.2.7-2.4.8-3.6.1-1.2 0-2.4 0-3.6.8.1 1.5.2 2.3.3.2 0 .7.2.8.1 0 0 .2-.6.2-.7.5-1.1 1.2-2 2-2.8.9-.9 1.8-1.7 2.9-2.3.5-.3 1-.6 1.5-.8.4-.1 1.1-.2 1.4-.4.5-.3.9-1.4 1.2-1.8.3-.5.9-1 .6-1.6-.3-.6-1.4-.8-1.4-1.5 0-.6.8-.8 1.2-1 .7-.4 1.5-.7 2.2-1.1.3-.2 1.6-.5 1.7-.9.1-.3-.6-1.9-.8-2.3.6-.1 1.7-.2 1.9-.7.2-.4 0-1-.2-1.4-.3-.4-.9-.6-1.1-.9-.2-.4 0-1.7 0-2.2v-1.9c1.3.1 2.6.1 3.9.2-.4-1.5-.1-3 .7-4.4.4-.6.8-1.2 1.3-1.7.4-.5.4-.4.9 0 .4.3.8.6 1.1.9 0-.2-.1-.8 0-1 .2-.3 1.1-.7 1.4-.9.7-.5 1.6-1.4 2.5-1.2.4.1.7.4 1 .6.2.3.5 1.1.8 1.3.3.1 1.5-.5 1.8-.6.7-.2 1.3-.4 2-.6l1.8-.6c.3-.1.6-.3.9-.3.5-.1.2-.1.6.2.7.5 1.1.7 2 .7.8 0 1.6-.2 2.4 0 1.1.3 1.3 1.4 1.8 2.4.5-.4 1.1-.9 1.7-1.2.5-.2.9.1 1.4.2.5.2 1 .3 1.5.2.5-.1 1-.3 1.5-.2 1.1.1 1.9.9 2.9 1.1.7.2 1.5-.5 2.3-.5.6 0 1.1.3 1.6.7.3.3.5.6.8 1 .2.3.8 1 .8 1.5 0 .3-.7.8-1 1.2-.3.4-.4.8-.5 1.3-.2 1.1.2 2.2.6 3.1-1.9.8-3.4.1-5-1.1-.8-.6-1.7-1.2-2.5-1.8-.8-.6-1.5-1.2-2.5-1.4.2.7.4 1.3.7 2-1.1-.1-2.2-.3-3.3-.4-.4-.1-1.1-.3-1.5-.2-.4.1-.5.9-.7 1.3-.1.2-.2.8-.4.9-.1.1-.5 0-.6 0-.5 0-.9-.1-1.4.2-1.6.9-3 2.4-4.1 3.8-.6.7-1.1 1.5-1.6 2.2-.3.5-.4.7-1 .6-.6 0-1.2-.2-1.8-.3l.3 2.4h-2.3c-.1 0-.7-.1-.8 0-.3.2-.3 1.5-.4 1.8-1-.3-1.5.5-2.1 1.2-.7.9-1.6.9-2.4 1.7-.5.4-.9 1-1.2 1.5-.2.2-.3.5-.5.7-.3.4-.3.6-.9.6-.3 0-.7-.3-.9-.2-.3-.2-.4-.1-.4.3-.1.2-.1.5-.2.7-.2.7-.4 1.5-.6 2.2-.4-.4-.4-.2-.8.2-.2.3-.5.6-.7.9-.6.7-1.1 1.3-1.7 2 2.3.6 4.7.8 7.1.3 1-.2 2-.5 2.9-.8.2-.1.7-.4.9-.4.1 0 .5.4.6.5l1.5 1.2 1.2.9c.2.1 1.1 1 1.3 1 .2 0 1.1-1.3 1.2-1.5.4-.5.8-1 1.1-1.4.4-.4.7-.9 1.1-1.3.5-.6.6-.8 1.4-.9 1.2-.2 2.3-.4 3.5-.7 0 0 .6-.1.7-.1.1-.1.1-.7.1-.9 0-.2 0-.8.1-.9.1-.1.5-.3.6-.4 1.1-.7 2.2-1.1 3.5-1.5 1.1-.3 2.2-.7 3.2-1 1.2-.4 2.2-1 3.4-1.3 2.3-.6 4.7-.4 6.9.3 1.4.4 3.2 1 4.2 2.2 1.1 1.3.8 2.8 1.1 4.3.2 1 1.1 1.7 1.3 2.8.2 1.1-.9 2.2-1.4 3.1h2.9c.7 0 .7.1 1.1-.5.6-.9 1.3-1.7 1.9-2.6 2.4-3.6 4.1-7.7 4.4-12-.3.1-.7.3-1 .3-.4 0-.4-.2-.6-.6-.4-.7-.8-1.3-1.2-2-.7-1.2-1.5-2.5-2.2-3.7l2.4-.9c.3-.1.7-.2 1-.4.4-.2.2.1.3-.4v-.6c-.1-1.4-.4-2.7-.8-4-.4-1.2-1.1-2.3-1.9-3.3-.4-.5-.8-.9-1.2-1.3-.6-.6-1-.9-1.8-1-.6-.1-1.1-.1-1.4-.7-.2-.3-.2-.6-.3-.9 0-.1 0-.3-.1-.4-.2-.4.1-.3-.4-.4-.9-.1-1.7.4-2.6.1-.7-.3-1.1-1-1.3-1.7-.4-1.3-.6-2.8-.4-4.2.2-1.5-.1-2.6-.9-3.9-.9-1.4-2-2.7-3.1-4-.8-1-1.7-2-2.8-2.8-1.2-.8-2.3-.8-3.7-.9-1.2-.1-2.4-.5-3.3-1.4-.5-.5-.9-.9-1.5-1.2-.3-.1-.6-.2-.8-.3-.2-.1-.8 0-.9-.2-.2-.2-.2-.8-.3-1-.2-.3-.4-.3-.8-.4-.7-.2-1.4-.3-2.2-.5-1.3-.3-2.5-1.1-3.8-1.4-1.4-.3-2.9.3-3.8-1.1-.2-.3-.2-.7-.5-.9-.4-.3-1-.4-1.4-.5-.9-.3-1.9-.5-2.8-.6-.9-.1-1.8 0-2.6.1-.2 0-.5.1-.7.1-.4.1-.3 0-.4.4-.1.4-.1.9-.2 1.3-.1.5 0 .8-.4 1.1-.2.2-.8.5-.9.7-.2.4.6 1.4.8 1.8-.9-.1-1.8-.2-2.7-.4-.3 0-.8-.2-1 0-.2.2-.4 1-.5 1.3-.3-.2-.6-.5-.9-.6-.4-.1-.8.1-1.2.2-.8.2-1.7.4-2.5.6-.8.2-1.8.3-2.5.6-.5.2-.6.4-.9.9-.3.6-.5.7-1.1 1 .4-1.2.1-2-1-2.6-.3-.2-.8-.3-1.1-.6-.4-.5-.6-1.8-.7-2.5-.3-1.6-.1-3.1.9-4.4.3-.4.5-.4.4-1-.1-.3-.1-.7-.2-1-.1-.4-.1-.5.3-.7.2-.1.4-.2.6-.1.6.2.5 1.3 1.2 1.5 1 .2-.4-2.4-.6-2.8-.7-.9-1.7-1.7-2.5-2.5-.3-.4-.8-.9-.9-1.4-.1-.5-.2-.4.3-.7.5-.3.9-.5 1.4-.8.4-.2.9-.7 1.4-.7.4-.1 1 .1 1.4.2.1 0 .7.1.7.1.1-.1.2-.5.2-.7.2-.5.2-1 .7-1.2 1.6-.8 3.8.5 5 1.4.5-.9.9-1.8 1.4-2.6.2-.4.5-.9.7-1.3.2-.5.2-.7.7-.5 1.1.5.2 2.3.5 3.1.6-.5 1.1-1.2 1.8-1.6.4-.3.4-.2.9 0l.9.3c1.2.4 2.5.8 3.5 1.6.8.6 1.5 2 2.7 1.9.3 0 .6-.1.8-.3.4-.3.3-.5.4-1l.3-2.1c.8.4 1.7.9 2.5 1.3.4.2 1.1.4 1.4.7.3.3 0 1.1 0 1.5-.1.4-.1.9-.2 1.3 0 .1-.1.5-.1.6.1.5-.1.2.2.4.5.3 1.2-.1 1.6-.5.4-.4.6-.8 1-1.2.4-.3.4-.3.7 0 .4.4.8 1 1.2 1.4.3.4.6.7.9 1.1.1.1.3.4.4.5.2.5.2.1 0 .5-.1.4-.5.7-.7 1-.1.2-.2.3-.3.5-.3.4-.4.3 0 .7.6.6 1.5 1.1 2.2 1.6.8.6 1.4 1.4 2 2.1 1.2 1.4 2.7 2.6 4.2 3.7 1.6 1.1 3.3 2.1 5 3 1.8 1 3.7 1.7 5.5 2.6 1.7 1 2.4 2.5 3.4 4s2.4 2.8 4.2 3.3c.9-4.3 2.2-8.7 2.6-13.1 0-.5 0-1 .1-1.4.1-.5.3-.6.6-.9.7-.7.7-1.9.9-2.8.4-2.1.9-4.3 1.3-6.4-.8 1.1-1.9.7-3 .4.1.7.4 1.8.3 2.6.1.3 0 .4-.3.5-.2.1-.4.2-.7.3-.4.2-.8.3-1.2.5-.5.2-.6.2-.6.8 0 .3 0 .6.1.8.2.4.6.6 1 .7.4.1 1.1 0 1.5.2.8.5-1 1.1-1.4 1.2-1.1.5-1.5 1.3-1.9 2.4-.3.9-.5 2-1.3 2.6-.3.2-1.3.8-1.6.6-.2-.1-.3-1.3-.3-1.5-.1-.5-.2-.9-.3-1.4l-.9-4.8c-.2-1.4-.7-2.7-2-3.4.6-.8 1.2-1.6 1.9-2.4.1-.2.3-.4.4-.6.3-.2.3-.4 0-.6-.1-.4-.5-.8-.7-1.1-.1-.2-.6-.8-.6-1 0-.2.7-.8.8-1 .4-.5.9-.9 1.5-1.2 1.1-.6 2.3-.5 3.4-.2.8.3 1.6.6 2.4.8.5.1.9.2 1.4.3.5.1 1 .4 1.1-.1l2.1 1.5c.3-.4.5-.9.8-1.3.1-.2.7-.8.7-1.1 0-.6-.9-1.6-1.1-2.2-.2-.4-.3-.7-.3-1.2 0-.2-.1-.4 0-.6.1-.4 0-.2.4-.3.6 0 1.3.2 1.9.2v-5.1c0-1.4.1-2.8-.2-4.2-.3-1.2-.4-2.8-.9-4-.4-.8-1.4-1.5-2-2.1-.7-.7-1.4-1.3-2.1-1.9-.7-.6-1.5-1.2-2.3-1.6-1-.4-2-.6-3-.9-2-.7-4-1.6-5.9-2.5-2-1-3.9-2-5.9-2.8-2-.8-4.1-1.4-6.2-2-4.1-1.2-8.1-2.7-12-4.6-4.1-2.1-7.9-4.7-11.7-7.2-4-2.5-8-5.1-11.9-7.6-4.4-2.8-8.8-5.5-13.3-8.1-1.1-.6-2.2-1.3-3.4-1.9-.5-.3-1.1-.6-1.6-1-.3-.2-1.5-.9-.5-1 .4 0 1.2.4 1.6.5.5.2 1.1.4 1.6.6l3.6 1.2c-.3-1.6-.7-3.2-1-4.8-.1-.7-.4-1.5-.5-2.2-.1-.8.5-1.5.7-2.2.4-1.5 0-3.1-.3-4.5-.1-.4-.1-.8-.3-1.2-.2-.3-.5-.5-.8-.8l-.9-.9c-.4-.4-.4-.5-.4-1.1 0-1.6 0-3.2-.3-4.7-.1-.8-.3-1.5-.7-2.3-.1-.2-.5-.8-.5-.9 0-.3.5-.7.7-.8.4-.3.8-.2 1.3-.1.3.1.9.4 1.2.3.2-.1.6-.7.7-.9.3-.3.5-.7.8-1 .6-.7 1.1-1.4 1.7-2.1l2.7 3.6c.1-1.3.2-2.5.2-3.8 1 .3 2 .6 2.9.9.4.1.7.2 1.1.3.3.1 1.1.5 1.4.4.3-.1.9-.7 1.2-.9.3-.3.4-.4.8-.3.7.1 1.6.7 2.3 1 .3-1.2.5-2.5.8-3.7.8.4 1.7 1.1 2.6 1.3.5.1.4.1.8-.3.3-.3.7-.6 1-.9.4-.4.4-.5 1-.3.2.1.4.2.6.2.4 0 .7-.4 1.1-.4.3-.1.7-.1 1-.1 1.4.1 2.8 1.2 3.8 1.9.4.3.7.5 1 .8.4.3.3.3.7.2.7-.3 1.4-1.2 2-1.6.5.8 1.1 1.6 1.6 2.3.3-.9.5-1.8.8-2.7.6.3 1.1.6 1.7.8.6.2.9 0 1.5-.3.3-.2.4-.3.7-.2.2.1.4.5.5.7.3.4.8 1.3 1.3 1.4.6.1 1.5-.4 2.1-.6.6-.2 1.2-.3 1.8-.5.8-.2 1.7-.4 2.6-.2.7.2 1.3.6 1.8 1.1.3.4.5.8.8 1.2.3.3.1.2.4.3.6.1 1.2-.1 1.8 0 .8.2 1.6 1.5 2.1 2.1.7-.7 1.7-1.1 2.7-1.1.5 0 .9.1 1.4.1.2 0 .5.1.7.2.4.2.3 0 .5.4.2.8 0 2.5.6 3 .2.2.8.3 1.1.4.5.2 1.1.4 1.6.6-.2-.4-1.1-1.4-1.1-1.8 0-.5 1.2-1 1.4-1.6.3-.8.3-1.5.8-2.2.5-.6 1.1-1 1.6-1.5.4-.3.6-.3.3-.9-.2-.3-.4-.6-.2-.9.2-.3.9-.5 1.2-.7.4-.3.9-.5 1.3-.8.7-.4 1.4-1 2.2-1.1.8-.1 1.7-.1 2.5-.2-.4-.5-.6-1.2-1.1-1.7-.4-.4-1-.6-1.1-1.2v-.7c.1-.2.1-.4.2-.5.1-.3.2-.4.5-.2.5 0 1.7.4 2.1.6.9.5 1.4 1.8 2.3 2.5 1 .8 2.3 1.3 3.6 1.4 0-.7.2-1.8 0-2.4-.2-.5-1-1-1.4-1.4-.6-.7-1.2-1.5-1.7-2.3.5-.3 1.3-.4 2.1-.5zM14.2 126.3c-.3-.1-1.3-.4-1.5-.7-.4-.6.6-.8 1-.9 1-.5 2-1.1 3.1-1.3.6-.1 1.3-.1 1.7.4.2.4.2 1.1.1 1.5-.5 1.1-2.1 1.6-3.1 2-1.3.6-2.7 1.2-4 1.9-.3.1-.7.5-1 .5-.3 0-.5-.2-.7-.6-.3-.3-.9-.9-.9-1.3.2-1 1.8-1.1 2.5-1.1.9.1 1.9.3 2.8-.4zM63.5 209c-.3-.5-.6-1.4-1-1.8-.4-.4-.2-.3-.8-.1-.3.1-.5.1-.8.2-.3.1-.6.2-.9.2-.5 0-.4 0-.6-.3-.4-.6-.8-1.2-1.1-1.8.9-.2 1.8-.3 2.7-.5.2 0 1-.3 1.2-.2.1.1.4.7.5.9.8 1.1 1.4 2 .8 3.4zm.6-37.8c-.9.9-2 1.6-3.1 2.4-.3.2-.5.3-.6.6 0 .2.1.5.1.7.1.7.2 1.1-.7 1.3-.9.1-1-.8-1.1-1.5-.1-1.4 0-2.8 0-4.2 0-.3-.1-.7 0-1 .1-.3.3-.5.5-.7.5-.5 1-1.1 1.5-1.6.2-.2.4-.6.6-.7.3-.1.4 0 .7.2.3.1 1.3.5 1.5.8.1.2 0 .7 0 .9.1.3.3.6.5.9.5.7.7 1.3.1 1.9zm3.8-62.4c-.6.9-.5 2.2-.6 3.2 0 1 .3 2.7-.2 3.6-1 1.6-3.3 3-5 3.7-1.7.7-3.6 1-5.5.8-.5 0-1.1-.1-1.6-.2-.3-.1-1.2-.4-1.5-.3-.4.1-.9.8-1.2 1.1-.5.5-1.1.9-1.6 1.4l-1.5-1.8c-.4-.4-.5-.4-.2-.8.2-.4.6-.7.9-1 .3.4.5.8.8 1.3.4-.3 1.7-.8 1.9-1.3.1-.1 0-.5 0-.6v-2.6c0-.3-.1-.7 0-1 .1-.4.5-.5.8-.8.9-.8 1.6-1.7 2.7-2.3.6-.3 1.1-.2 1.7-.4.3.1.4 0 .4-.4.1-.2.2-.5.2-.7.1-.4.2-.7.3-1.1.1-.3.2-1.2.5-1.4.2-.2.9-.2 1.2-.3.2-.1 1.1-.1 1.2-.3.1-.2.1-.9.2-1.2.4-1.2 1.4-2.1 2.4-2.8.4-.3.5-.4.9-.3.2.1.5.3.8.4.8.4 1.6.8 2.3 1.2-.3-1.5-1.2-3.3.8-4 .5 2.9.6 6.1-1.1 8.9zm82 84.6c.6.3 1.2.6 1.7.9.5.2 1.2.5 1.5.8.4.4.2 0 .3.4.1.2 0 .6 0 .8 0 .6.1 1.3 0 1.9-.1.3 0 .2-.2.4-.3.3-1.2.3-1.6.3-1.1-.1-1.8-1-2.9-1.2-.3-.1-1.4-.1-1.6-.4-.2-.2-.2-.9-.1-1.2.6-1.2 2.4-1.4 2.9-2.7zm-44.3-73.5c-1.1-.3-2.3-.3-3.3-1-.3-.2-.5-.4-.7-.7-.2-.3-.3-.4-.1-.7.2-.4.8-.8 1.2-1 .9-.4 1.7.1 2.4.7.4.4 1.3 1.1 1.5 1.6.1.3-.1.4-.4.7-.1.1-.3.4-.6.4zm29.8 22.2c1.2-.4 1.6.9 2.2 1.7 1 1.2 1.9 2.3 2.7 3.7.2-.8.3-1.6.5-2.4 1.4 2 2.9 3.8 4.2 5.9 1.3 2.1 2.3 4.5 3.4 6.7-.7 0-1.5-.2-2.1.1-.3.1-.6.5-.9.7-.4.4-.5.4-.5 1 .1.8.1 1.7.2 2.5l-1.5-1.2c-.2-.1-.4-.4-.6-.5-.5-.2-.3.1 0 .4.5.5 1 1.1 1.4 1.6.3.3.6.5.5.9 0 .4-.4.9-.5 1.2-1.8-1.1-3.7-2.2-5.5-3.3-.5-.3-1-.5-1.2-1-.1-.3-.2-.8-.3-1.1-.3-.8-.7-1.5-1.3-2.1-.5-.6-1.1-1-1.8-1.4-.5-.3-.6-.7-.9-1.2-.2-.5-.4-.9-.6-1.4-.5-1-.9-2-1.4-3-.2-.4-.5-.8-.3-1.2.1-.4.5-.8.7-1.2-.3-.1-2.1-.6-2.3-1-.1-.3.1-1.3.2-1.6.9.6 1.8 1.3 2.8 1.8 1 .5 2.1.8 3.1 1.2l-.6-2.1c-.1-.2-.1-.4-.2-.6.1 0 .3-.1.4-.2.2-.2.4-.2.5-.5.3-.7-.7-1.5-.3-2.4zm-30.1-27.6c1.6-1.6 3.8.3 5.3 1.2.9.5 1.8 1 2.6 1.6.7.5 1.5 1.6 2.3 1.9.4.1.9.1 1.3.2.5.2.9.4 1.3.7.8.6 1.5 1.4 2.5 1.9.8.4 1.6.3 2.3.9.7.5 1.3 1.3 1.8 2-1.9.5-3.6-.8-5.2-1.7l-6.6-3.3 1.2 3.6c.1.2.3.8.3.9 0 .2-.6.4-.7.5-.5.3-.9.7-1.4 1l1.1 1.1c.5.5.6.8 1.3.7.3 0 1.3-.4 1.5-.2.2.2.4 1.2.5 1.5.4-.2.8-.7 1.3-.8.2-.3.4-.3.6.1.1.1.2.2.2.3.3.4.7.7 1 1.1.1.1.6.8.7.8.6.1 1.3-1.1 1.9-1.1.3 0 1.2.8 1.4 1 .3.4.1 1 .4 1.4.1.2.4.5.6.5.4.1.4-.2.7-.5.8-1.2 1.5-.3 1.8.7.1.3.1.8.4 1 .4.4 1.7.1 2.2 0 .6 0 .6.1.9.6.2.3.4.7.6 1 .3.5 1.2 1.5 1.1 2 0 .5-.7 1.3-1 1.8-.4.6-.8 1.1-1.2 1.7-1 1.2-2.2 2.2-3.6 2.9l-.3-3.6c-1.3.4-2.2-.2-2.9-1.2-.2-.2-.3-.6-.5-.8-.3-.2-.2-.2-.7-.1-.6.1-1.1.1-1.7 0-1.1-.2-1.9-1-2.4-1.8-.8-1.3-1.5-2.7-2.4-3.9-.4-.6-.8-1.6-1.4-2.1-.3-.3-1-.2-1.5-.4-.9-.4-1.5-1.2-2.1-1.9-.6-.8-1.3-1.6-2.1-2.2-.5-.4-.5-.2-.6-.8v-1c-.4.2-.2.1-.5 0-.1-.1-.3-.4-.4-.6-.3-.3-.6-.6-.7-1-.2-.6-.2-1.2.4-1.6.5-.3 1.2-.1 1.7-.2s2.2-.9 1.2-1.2c-.3-.1-.8.3-1.2.3-.3 0-.4-.2-.6-.5-.3-.5-.4-1.1-.9-1.4-.6-.4-1-.2-1.3-.9-.3-.4-.9-1.7-.5-2.1zm-1-1.9c-.6-.1-1.5-.3-2.1-.2-.3-.1-.5 0-.5.3-.1.1-.1.2-.2.3-.2.3-.4.7-.5 1-.4.7-.7 1.3-1.1 2-.2.4-.7 1.9-1.1 2.1-.4.2-1.4 0-1.8 0-.3 0-.4 0-.6-.1-.4-.4-.7-1.9-1.3-1.6.1.4.3.8.4 1.1.1.2.2.4.2.6.2.2.2.4-.1.4-.3.3-.9.1-1.2-.2-.7-.5-1-1.5-2-1.4l.9-2.1c-.5-.2-1.1-.3-1.6-.5-.3-.1-.6-.1-.8-.3-.5-.2-.4-.2-.4-.8-.1-1.2-.3-2.3-.4-3.5-.1-.7-.2-1.4-.2-2-.1-.6-.3-1.5-.2-2.1.1-.5-.1-.3.4-.5.2-.1.5-.1.7-.1.5 0 1.1.1 1.6.3 1.1.5 2.1 1.3 3.2 1.9 1.1.6 2.2 1.2 3.4 1.7 1.1.5 2.3 1 3.4 1.5.4.2 1.2.4 1.4.7.2.4.4 1.1.5 1.5zm-5.9-11.9c-.2.4-.3.9-.5 1.3 1.5.4 2.9 1.1 3.5 2.5.3.6.3.8-.2 1.3-.4.4-.8.8-1.2 1.1-.3.3-.6.7-1 .7-.5 0-1.2-.5-1.7-.7-1.6-.6-3.5-1-4.8-2-1.3-1-1.9-2.4-1.9-4 .6.1 2.8.9 3.1.5.4-.5-.5-.7-.8-.8-.4-.1-1.4-.3-1.7-.6-.3-.3-.4-1.2-.6-1.6-.2-.5-.4-1.1-.6-1.6-.5-1.2-.9-2.4-1.4-3.7 1.6.1 3.3 1.2 4.5 2.2 1.9 1.7 3.7 3.4 5.3 5.4zm-6.9-86c-1.4-1-3-1.6-4.7-1.5h-.5c-.3.1-.5 0-.5-.3-.3-.3-.3-.9-.5-1.3 0-.3-.1-.4-.4-.3-.2 0-.4.1-.5.1-.4.1-.8.1-1.2.2.1-1.2.1-2.4.2-3.6 1 0 1.9.6 2.7 1.2l1.2.9c.6.3.9.4 1.5.1.7-.3 1.6-.7 2.3-.3.6.3.8 1.2.9 1.8h-1.9c1.3.9 3.1.4 4.3 1.5.4.4.6.6.2 1-.2.3-.5.6-.9.8-.8.6-1.5.2-2.2-.3zm24.6-2.6l-2.4-2.1c0 1.1-.3 2.1-1.4 2.5-.2.1-1.2.4-1.5.3-.3-.2-.5-1.8-.6-2.1-.1-.3-.2-.7-.3-1-.2-.7-.2-.7-1-.7-.9-.1-1.8-.1-2.7-.2-.9-.1-1.9-.3-2.7-.2-.5.1-.5.1-.8.5-.2.3-.5.5-.7.8l-2.4-3c-.3-.3-1.1-1-.5-1.3.4-.2 1 .3 1.4.5 1 .4 2.1.5 3.2.4 1.1-.2 2.1-.6 3.2-.3.5.1.9.3 1.3.6.4.2.8.8 1.3.9.5.2 1.2-.5 1.7-.7.4-.1.4-.1.8.1.3.1.5.3.8.4 1 .6 2.1 1.2 3.1 1.8.3.2.7.3 1 .6.4.3.3.1.1.6-.3.5-.7 1.1-.9 1.6zm32.3 16c2.7-.3 4.5.9 4.9 3.4-2.5 0-3.6-1.7-4.9-3.4z" fill="rgba(255,255,255,0.4)"/><path d="M165.6 47.6c.3-.8.5-1.7.8-2.5-.6.1-1.2.3-1.8.4-.6.1-.7.2-1.2-.2-.8-.7-1-1.5-1-2.4-.1-2.3-1.7-4.2-3-6-1.2-1.8-2.5-3.6-4.3-4.8-.2-.2-.5-.3-.8-.5-.4-.3-.4-.2-.6-.6-.1-.4 0-1-.2-1.4-.2-.5-.9-1-1.3-1.4-.5-.4-1-.9-1.4-1.3.5-.4 1.1-.7 1.6-1.1-1.2-.6-2.5-1.1-3.5-2.1-.9-.9-1.3-2.2-2.1-3.1-1.7-1.9-4-3.2-6.3-4.1-2.3-1-4.6-2-6.1-4.2-.5-.6-1.5-2.4-2.6-1.5-.4.4-.7 1.6-1 2.2-.2.4-.3.7-.5 1.1-.2.5-.3.6-.1 1.1.2.3.4.4.3.7 0 .3-.4.8-.5 1-.3.6-.6 1.7-1 2.2-1 1.1-3.2.6-4.3 0 .9-.6 1.7-1.3 2.6-1.9-.7-.4-1.9-.7-2.5-1.3-.3 0-.4-.2-.3-.5 0-.2.1-.5.1-.7l.3-1.5.3-1.5c0-.3.4-1.3.3-1.5-.2-.3-2-1-2.3-1-1.2-.2-2 2.2-1.9 3.2 0 .3.1.9.3 1.2.2.2 1 .4 1.4.5.2.1.5.2.7.3v.8c-.1.1-1.1.1-1.3.2-.8.2-1.6.5-2.5.5-.3 0-.9 0-1.1-.2-.2-.2-.3-1.2-.4-1.5-.5-1.8-1-3.5-1.6-5.3-.3-.9-.5-1.7-.8-2.6-.2-.6-.3-.7-.9-.9-.4-.2-.9-.4-1.3-.6-.4-.2-1.9-1.1-2.3-1-.4.1-1 1.5-1.2 1.9-.8-.9-1.8-2.3-2.9-2.7-1.7-.6-3.4-1.1-5.1-1.7-.8-.3-1.6-.6-2.4-.8-.8-.2-1.7 0-2.6.1-1.7.2-3.4.4-5.1 1-.4.1-.8.3-1.2.4-.1 0-.6.3-.7.3-.1 0-.2-.3-.3-.4-.6-.4-.8-.9-1.6-1.1-1.1-.3-2.4 0-3.5.2-1.8.2-3.6.5-5.4.8-4 .7-7.9 1.3-11.9 1.9.5.6 1 1.6 1.6 2 .1.3.3.3.5.1.2-.1.5-.1.7-.2.3-.1.7-.2 1-.3.4-.1.9-.3 1.3-.4.3-.1 1.1-.5 1.4-.4.3.1.8.7 1 .9.3.3.6.6.9.8.7.6 1.4 1.3 2.1 1.9.2.2.4.3.6.5.4.1.4.3.1.6-.1.4-.5.8-.7 1.1-1 1.6-2.1 3.2-3.1 4.8-.4-1.7-.7-3.1-1.7-4.6-.1-.2-.5-1-.7-1.1-.6-.7-.6.1-.7.5l-.3 1.5c0 .3-.1.5-.1.8.1.3-.1.5-.4.6-.3.3-.9.5-1.3.7-.3.1-.9.6-1.2.6-.3 0-2.4-1.2-2.4-1.4-.1-.2.7-1.1.8-1.3.3-.4.5-.9.8-1.3.5-.9 1-1.8 1.6-2.7-.5-.1-1-.1-1.5-.3-.8-.4-.9-.6-1.3-1.1-.1-.2-.3-.5-.5-.6-.3-.3-.1-.3-.6-.3-.3 0-.8.1-1.1.2-1.3.3-1.8 1.2-2.2 2.4.5-.4 1-.7 1.4-1.1.1-.1.5-.5.7-.5.1 0 .8.6.9.7L66.7 8c.3.3.3.2.3.6 0 .2-.2.5-.3.7-1 1.3-2.8.5-4 1.3.4.7.9 1.5 1.3 2.2.2.4.5.7.7 1.1.1.1.3.4.3.5 0 .1-.5.6-.6.7-.4.4-1.1 1.5-1.6 1.8-.4.2-1.7-.1-2.1-.4-.6-.3-.6-1.3-1-1.8-.3-.5-1.1-.7-1.6-.4-.5.3-.5.8-.9 1.1-.4.3-1.1.1-1.6-.1-.8-.4-1.5-1.1-2-1.8-.4-.5-.3-.5-1-.5-.4 0-1.8-.2-2.1 0-.4.3.1 1.5-.4 1.8-.3.2-.9.3-1.3.4-.5.1-1 .3-1.5.4-.2.1-.5.1-.7.2-.4.2-.3.1-.4.4-.1.3-.2.8-.3 1.1-.1.4-.3 1-.8 1.3-1.2.8-2.2-.8-2.8-1.6-.5 1.6-.9 3.3-1.6 4.9-.5 1.1-1.6 1.9-2.4 2.7-.5.4-.9.9-1.2 1.4-.3.6-.4 1.2-.9 1.7-1.2 1.2-2.5 2.3-3.6 3.7-.9 1.2-1.8 2.2-3.1 3-.6.3-1.2.6-1.8.8-.5.2-1.9.2-2.2.6-.3.5-.3 1.8-.4 2.3-.1.5-.1 1-.2 1.4-.1.5-.3.7-.7 1.1-.6.7-1.2 1.4-1.8 2-.4.5-.4.4-.9.1-.4-.2-.9-.7-1.3-.5-.3.2-.7.9-1 1.2-.3.4-.6.8-1 1.2L16.4 47c-.3.4-.7.9-1 1.3-.1.1-.2.3-.3.5-.4.4-.2.2-.7.2-.9-.1-1.8-.4-2.7-.5.2.5.5 1 .7 1.4.1.3.5.9.6 1.2 0 .7-1.3 2.2-1.8 2.9-.4.6-1.2 1.3-1.3 2-.1.3 0 .7 0 1.1v1.7c0 .3.1 1 0 1.3-.2.4-.9.5-1.4.7-.3.1-1.2.3-1.5.6-.3.3 0 1.1.1 1.5.1.7 0 .7.5.8.4.1.9 0 1.4 0 1 0 2.1.1 3.1 0 .5-.1.4-.1.9-.5.3-.3.6-.7.9-1 .4-.4.9-.3 1.5-.4.9-.1 1.6-.9 2.3-1.4.4-.3.7-.5 1.1-.8.6-.4.8-.7 1.4-.6.9.1 1.9-.1 2.8-.2 1-.2 1.9-.2 2.9-.3 1.6-.3 3-1.4 4.7-1.3.6 0 .7.1 1.2-.3.3-.3.7-.6 1-.8.5-.3.2-.2.6 0 .2.1.4.3.6.4.5.3 1 .7 1.5 1 0 0 .5.4.6.4.1 0 .5-.4.7-.5.3-.3.7-.5 1.1-.7.9-.4 1.8-.7 2.8-.7.4 0 .8 0 1.2.1.5.1.8.2 1.2-.1.4-.3.6-.8 1.1-.9.4 0 1.2.3 1.6.4 2.1.5 4.3 1.1 6.4 1.6.5.1 1 .3 1.5.4.5.1.6 0 1.1-.2.6-.2 1.3-.3 1.9-.1 1.4.3 2.3 1.7 2.9 2.8.3.6.7.8 1.3 1.1.6.3 1.1.5 1.7.8.5.2 1 .5 1.5.7l.8.4c.4.1.3.1.7-.2.2-.2.7-.9 1-1 .3-.1.9.4 1.1.7.6.5 1.1 1.1 1.3 1.9.1.4.1.8.1 1.2 0 .2-.1.4-.1.5 0 .5 0 .4.4.8s.8.7 1.2 1.1c.5.5.4.8.3 1.5-.1.5-.1 1.1-.2 1.6-.1.6-.1.7-.6 1.1-.8.6-1.5 1.3-2.3 1.9.6.5 1.3 1 1.9 1.5.5.4.3.4.1 1-.2.4-.3.9-.4 1.4-.4 1.6-.4 3.2-.1 4.9.1.8.4 1.7.6 2.5.1.2.3 1.3.5 1.4.1.1.6-.1.7-.1 1.4-.2 2.6-.2 3.6.9-1.7 1.1-3.3 2.1-5 3.2-.7.5-1.5 1-2.2 1.4-.5.3-.5.5-.7 1.1-.1.5-.2 1-.3 1.4-.2.9-.3 1.7-.5 2.6-.1.4-.1.8-.2 1.2 0 .2-.1.4-.1.6 0 .3-.1.4-.4.4-.8.5-1.9.7-2.7 1-.5.2-.6.2-1 .1s-.7-.4-1.1-.6c-.3 1.2-.9 2.4-1.9 3.1-.9.7-1.8.6-2.9.8-.6.1-1.2.6-1.7.9-.6.4-1.2.7-1.9.9-1.6.7-3.3 1.5-4.9 2.3-3.2 1.6-6.3 3.2-9.5 4.7-3.1 1.5-6.4 2.6-9.5 4.1-.7.3-1.3.8-1.9 1.2-.3.2-.7.5-1 .7-.5.3-.6.3-.3.8.9 1.3 1.9 2.7 2.8 4 .2.3.4.7.8.8.2.1.6.1.9.2.5.1.7.1.8.6.1.3 0 .6-.2.8-.5.8-2.1 1.2-2.8 1.6-3.1 1.6-6.6 2.9-9.5 4.9-.5.4-1 .9-1.6 1.2-.7.4-1.5.5-2.2.8-.9.3-2.2 1.1-3.2.8-.5-.1-1.1-.6-1.3-1.1-.2-.5-.1-.2.1-.5.1-.2.4-.3.6-.4.4-.3.7-.6 1.1-.8 1.6-1 3.6-1.7 5.3-2.5 3.7-1.6 7.1-3.7 10.6-5.7-.5-.2-1.1-.8-1.6-.8-.3 0-.5.3-.8.4-.3.1-.6 0-.8 0-.6-.1-1.2-.3-1.8-.1-.2.1-.5.4-.7.4-.2 0-.6-.5-.8-.7.6-.5 1.3-1 1.9-1.4.3-.2.6-.5.9-.7.4-.3.5-.4.3-.9-.5-1.3-1.6-1.2-2.7-.8-3.4 1.3-6.8 2.9-10.3 3.7-2.7.6-5.4 1.4-7.8 2.9-2.3 1.5-3.1 3.6-2.8 6.3.1.9.2 1.9.3 2.8 0 .2 0 .4.1.5.2.6 0 .2.4.4.3.1.6.1.9.3 1.2.7 1.1 2.2.9 3.4 2-.3 3.9-1.1 5.9-1.4 1-.1 2 0 3-.1s2-.4 2.9-.8c1.8-.8 3.4-1.9 5.1-2.9 1.9-1.2 3.8-1.9 5.9-2.6 2.2-.8 4.2-1.8 6.3-2.9.9-.5 1.9-1 2.8-1.5.4-.2 1-.6 1.5-.7.4 0 .2-.4.5.2.3.4.1.4-.2.8-1.5 1.5-3.8 2.4-5.6 3.5-1.8 1.1-3.5 2.4-5.4 3.2-2.2.9-4.4 1.8-6.5 3-1 .6-1.9 1.4-3 1.9-1 .4-1.9.5-2.8 1 .2.3.6.6.8 1 .2.4.2.2 0 .5-.1.2-.4.5-.6.7-.2.2-.7.7-.8 1-.1.3.3.9.5 1.2.4.7 1.1 1.6 1.3 2.4.2.8.2 1.9 0 2.7-.1.4-.4 1-.4 1.4 0 .3.1.3.5.4.4.1 1 0 1.4.2.3.2.9.9.7 1.3-.1.2-.9.5-1.2.6-.5.2-.9.4-1.4.7.7.7.4 1.7.4 2.5 0 .5-.1.9.1 1.3.1.2.2.4.3.5.3.3.3.2.7.2.6-.1.9-.6 1.3-1s.9-.8 1.3-1.1c1-.7 2.2-1.3 3.3-1.9 1.1-.6 2.1-1.1 3-1.9.5-.5 1.4-1.7 2.2-1.7.6 0 1 .3 1.6.2.5-.1 1-.3 1.5-.6.4-.2 1.1-.6 1.5-.6.4 0 .3 0 .5.4s.3.7.5 1.1c.8-1 1.6-1.9 2.4-2.9.3-.4.7-.8 1-1.2.7-.8.6-.1 1.3 0 .4.1.3-.1.6-.5.1-.2.3-.4.4-.6.4-.6.7-1.1 1.1-1.7.2-.3.5-1 .8-1.1.3-.1.7 0 1 0 .7 0 1-.3 1.6-.7 1.2-.8 2.5-1.6 3.8-2.2 1.7-.9 3.4-1.6 5.3-2 .8-.2 1.6-.3 2.5-.3.7 0 .8-.1 1 .4.2.9 0 2.2 0 3.2v4.1c0 .3.1 1 0 1.3-.1.3 0 .1-.4.2-1.2.1-2.4 0-3.6 0 .3 1.5.3 3.3-.9 4.4-.6.6-1.3.9-2.1 1.2-.6.2-.8.4-1.3-.1-.4-.5-.8-.9-1.2-1.4.1 2.1-.4 4.1-2.2 5.3-.3-.5-.7-1.1-1-1.6-.2.5-.6 1.6-1 1.9-.4.3-1.4.3-1.9.4.2.2.9 1.1 1.2 1.1.4 0 .8-.6 1.1-.8 1.4-.8.7 1.8.6 2.4-.1.3-.1.6-.2.9-.1.5-.2.5.3.7.4.2.9.1 1.3-.1.9-.4 1.4-1.3 2.4-1.3-.1.5 0 1.2-.2 1.7s-.8.7-1.3 1c-.7.4-2.3 1-2.6 1.6-.2.4.1 1.1-.1 1.4-.2.3-1.3.4-1.7.5-1 .3-2.4.4-3.1 1.1-.1.1-.2.3-.4.4-.3.2-.3.2-.7.1-.6-.1-1.1-.2-1.7-.3-.6-.1-1-.1-1.4-.6-.3-.4-.7-.8-1-1.1-.2-.2-.4-.4-.5-.6-.3-.4-.2-.3-.6-.2-.4.1-.9.6-1.2.9-.4.3-.6.5-1.1.3-.6-.3-1.1-.5-1.7-.8-.3.9-.5 1.8-.8 2.7-1.1-.6-2.3-.4-3.5-.5-.5 0-1-.1-1.4-.4-.3-.2-.4-.4-.6-.6-.3-.2 0-.2-.3-.2-.2 0-.6.2-.8.3-.5.2-1.6.3-1.9.8-.1.2 0 .9-.2 1.1-.2.1-.9-.1-1.1-.1-.7-.1-.8.1-1.3.5-.5.5-1.2.5-1.9.5-.6 0-1.3 0-1.9.1-.6.1-.6.1-.6.7-.1.4-.1.8-.2 1.2-.2 1.3-.4 2.7-.4 4 .1 1.4.4 2.8 1.1 3.9.2.3.4.6.7.9.4.4.4.5 1 .4.8-.1 1.7-.4 2.4-.1.7.3 1.5.5 2.2.8.8.4 1 1.4 1.8 2 .5.3 1.4.3 2 .4.4.1.7 0 .9.3.4.3.7.8.9 1.2 1.1 1.3 2.2 2.7 3.3 4 .2.3.5.6.7.9.2.2.6.9.9 1.1.5.2 1.4-.1 2-.1 1.4.1 2.6.7 3.7 1.4 1.2.7 2.5 1.5 3 2.9.4 1.2.8 2 2.1 2.6 1.4.6 2.9.8 4.4 1.2.5.1.7.2 1 .5.3.3.6.7.9 1.1.5.6 1 1.2 1.5 1.7.5.6 1.1 1.1 1.5 1.7.5.7.6 1.6.8 2.5.4 1.7.8 3.5.6 5.3-.1.7-.3 2-.9 2.4-.5.4-1.7.4-2.3.6 1.2 1.2 2.3 2.4 3.7 3.4.7.5 1.6 1.1 1.8 2 .3.9-.5 2.6 0 3.2.4.5 1.2.8 1.7 1.2.5.5.6 1.1 1 1.7.7 1.1 1.8 1.7 3 2.1.4.2 1.1.5 1.5.6.4.1 1.1-.2 1.5-.2.5-.1 1-.1 1.5-.1l5.7-.3c.9 0 1.9-.2 2.9-.1.7.1 1.4.5 2.1.7-.6.5-1.2.9-1.7 1.4 1.4 1.6 2.8 3.1 4.2 4.7.6.7 1.5 1.4 1.8 2.2.3.9.4 1.9.6 2.8 1.4-.8 2.1-.1 2.8 1 .3.5.7 1.1 1.2 1.5.2.2.5.4.8.4.5 0 .6-.3.9-.6-.6-.3-2.7-1.1-2.8-1.7-.1-.6.7-.5 1.1-.9.5-.6.4-1.8 1.3-2.2 1.5-.6 1.4 1.8 1.9 2.6.2.3.4.5.7.7.6.3.7 0 .9-.5.5-.9.9-2.3 1.8-2.8.2.9.7 1.6 1.6 1.8.7.1 1.5-.1 2.2.2.6.2 1.3 1 1.7 1.5.7.7 1.1 1.5 1 2.5-.5-.3-.9-.6-1.4-.9-.5-.3-1.1-.8-.7.1.2.4.8 1 .7 1.4-.2.4-1 1.1-1.3 1.4.4.2.9.4 1.3.6.2.1.3.2.5.3.4.1.2.2.6 0 .3-.2.5-.9.8-1 .3-.1 1.3.5 1.5.7.5.2 1 .4 1.5.7.2.1.5.3.7.3.2 0 .7-.4.8-.5 1-.6 2-1.1 3-1.7l2.7-1.5c.5-.3.9-.5 1.4-.8.6-.3.4-.5.3-1.2-.3-2-.6-4.1-.9-6.1-.5.9-1.3 1.7-2.4 1.9-.9.2-1.7-.5-2.6-.3-.2 0-.5.1-.7.2-.4.2-.3.3-.3.7-.1.6-.2 1.2-.4 1.7-.4 1.1-1.1 2-1.9 2.8-1.7-2.3-1.2-5.9-4.3-7.1-.1.6-.2 1.1-.4 1.7-.1.2-.1.5-.2.8-.2.4.1.3-.4.5-.6.2-1.7 0-2.2-.3-.5-.3-.7-.8-.8-1.3-.2-1.2-.3-2.5-.5-3.7-.1-1.2-.3-2.4-.4-3.6-.1-.6-.2-1.2 0-1.7.1-.5.4-1.1.6-1.6.4-1.2.7-2.4.8-3.6.1-1.2 0-2.4 0-3.6.8.1 1.5.2 2.3.3.2 0 .7.2.8.1 0 0 .2-.6.2-.7.5-1.1 1.2-2 2-2.8.9-.9 1.8-1.7 2.9-2.3.5-.3 1-.6 1.5-.8.4-.1 1.1-.2 1.4-.4.5-.3.9-1.4 1.2-1.8.3-.5.9-1 .6-1.6-.3-.6-1.4-.8-1.4-1.5 0-.6.8-.8 1.2-1 .7-.4 1.5-.7 2.2-1.1.3-.2 1.6-.5 1.7-.9.1-.3-.6-1.9-.8-2.3.6-.1 1.7-.2 1.9-.7.2-.4 0-1-.2-1.4-.3-.4-.9-.6-1.1-.9-.2-.4 0-1.7 0-2.2v-1.9c1.3.1 2.6.1 3.9.2-.4-1.5-.1-3 .7-4.4.4-.6.8-1.2 1.3-1.7.4-.5.4-.4.9 0 .4.3.8.6 1.1.9 0-.2-.1-.8 0-1 .2-.3 1.1-.7 1.4-.9.7-.5 1.6-1.4 2.5-1.2.4.1.7.4 1 .6.2.3.5 1.1.8 1.3.3.1 1.5-.5 1.8-.6.7-.2 1.3-.4 2-.6l1.8-.6c.3-.1.6-.3.9-.3.5-.1.2-.1.6.2.7.5 1.1.7 2 .7.8 0 1.6-.2 2.4 0 1.1.3 1.3 1.4 1.8 2.4.5-.4 1.1-.9 1.7-1.2.5-.2.9.1 1.4.2.5.2 1 .3 1.5.2.5-.1 1-.3 1.5-.2 1.1.1 1.9.9 2.9 1.1.7.2 1.5-.5 2.3-.5.6 0 1.1.3 1.6.7.3.3.5.6.8 1 .2.3.8 1 .8 1.5 0 .3-.7.8-1 1.2-.3.4-.4.8-.5 1.3-.2 1.1.2 2.2.6 3.1-1.9.8-3.4.1-5-1.1-.8-.6-1.7-1.2-2.5-1.8-.8-.6-1.5-1.2-2.5-1.4.2.7.4 1.3.7 2-1.1-.1-2.2-.3-3.3-.4-.4-.1-1.1-.3-1.5-.2-.4.1-.5.9-.7 1.3-.1.2-.2.8-.4.9-.1.1-.5 0-.6 0-.5 0-.9-.1-1.4.2-1.6.9-3 2.4-4.1 3.8-.6.7-1.1 1.5-1.6 2.2-.3.5-.4.7-1 .6-.6 0-1.2-.2-1.8-.3l.3 2.4h-2.3c-.1 0-.7-.1-.8 0-.3.2-.3 1.5-.4 1.8-1-.3-1.5.5-2.1 1.2-.7.9-1.6.9-2.4 1.7-.5.4-.9 1-1.2 1.5-.2.2-.3.5-.5.7-.3.4-.3.6-.9.6-.3 0-.7-.3-.9-.2-.3-.2-.4-.1-.4.3-.1.2-.1.5-.2.7-.2.7-.4 1.5-.6 2.2-.4-.4-.4-.2-.8.2-.2.3-.5.6-.7.9-.6.7-1.1 1.3-1.7 2 2.3.6 4.7.8 7.1.3 1-.2 2-.5 2.9-.8.2-.1.7-.4.9-.4.1 0 .5.4.6.5l1.5 1.2 1.2.9c.2.1 1.1 1 1.3 1 .2 0 1.1-1.3 1.2-1.5.4-.5.8-1 1.1-1.4.4-.4.7-.9 1.1-1.3.5-.6.6-.8 1.4-.9 1.2-.2 2.3-.4 3.5-.7 0 0 .6-.1.7-.1.1-.1.1-.7.1-.9 0-.2 0-.8.1-.9.1-.1.5-.3.6-.4 1.1-.7 2.2-1.1 3.5-1.5 1.1-.3 2.2-.7 3.2-1 1.2-.4 2.2-1 3.4-1.3 2.3-.6 4.7-.4 6.9.3 1.4.4 3.2 1 4.2 2.2 1.1 1.3.8 2.8 1.1 4.3.2 1 1.1 1.7 1.3 2.8.2 1.1-.9 2.2-1.4 3.1h2.9c.7 0 .7.1 1.1-.5.6-.9 1.3-1.7 1.9-2.6 2.4-3.6 4.1-7.7 4.4-12-.3.1-.7.3-1 .3-.4 0-.4-.2-.6-.6-.4-.7-.8-1.3-1.2-2-.7-1.2-1.5-2.5-2.2-3.7l2.4-.9c.3-.1.7-.2 1-.4.4-.2.2.1.3-.4v-.6c-.1-1.4-.4-2.7-.8-4-.4-1.2-1.1-2.3-1.9-3.3-.4-.5-.8-.9-1.2-1.3-.6-.6-1-.9-1.8-1-.6-.1-1.1-.1-1.4-.7-.2-.3-.2-.6-.3-.9 0-.1 0-.3-.1-.4-.2-.4.1-.3-.4-.4-.9-.1-1.7.4-2.6.1-.7-.3-1.1-1-1.3-1.7-.4-1.3-.6-2.8-.4-4.2.2-1.5-.1-2.6-.9-3.9-.9-1.4-2-2.7-3.1-4-.8-1-1.7-2-2.8-2.8-1.2-.8-2.3-.8-3.7-.9-1.2-.1-2.4-.5-3.3-1.4-.5-.5-.9-.9-1.5-1.2-.3-.1-.6-.2-.8-.3-.2-.1-.8 0-.9-.2-.2-.2-.2-.8-.3-1-.2-.3-.4-.3-.8-.4-.7-.2-1.4-.3-2.2-.5-1.3-.3-2.5-1.1-3.8-1.4-1.4-.3-2.9.3-3.8-1.1-.2-.3-.2-.7-.5-.9-.4-.3-1-.4-1.4-.5-.9-.3-1.9-.5-2.8-.6-.9-.1-1.8 0-2.6.1-.2 0-.5.1-.7.1-.4.1-.3 0-.4.4-.1.4-.1.9-.2 1.3-.1.5 0 .8-.4 1.1-.2.2-.8.5-.9.7-.2.4.6 1.4.8 1.8-.9-.1-1.8-.2-2.7-.4-.3 0-.8-.2-1 0-.2.2-.4 1-.5 1.3-.3-.2-.6-.5-.9-.6-.4-.1-.8.1-1.2.2-.8.2-1.7.4-2.5.6-.8.2-1.8.3-2.5.6-.5.2-.6.4-.9.9-.3.6-.5.7-1.1 1 .4-1.2.1-2-1-2.6-.3-.2-.8-.3-1.1-.6-.4-.5-.6-1.8-.7-2.5-.3-1.6-.1-3.1.9-4.4.3-.4.5-.4.4-1-.1-.3-.1-.7-.2-1-.1-.4-.1-.5.3-.7.2-.1.4-.2.6-.1.6.2.5 1.3 1.2 1.5 1 .2-.4-2.4-.6-2.8-.7-.9-1.7-1.7-2.5-2.5-.3-.4-.8-.9-.9-1.4-.1-.5-.2-.4.3-.7.5-.3.9-.5 1.4-.8.4-.2.9-.7 1.4-.7.4-.1 1 .1 1.4.2.1 0 .7.1.7.1.1-.1.2-.5.2-.7.2-.5.2-1 .7-1.2 1.6-.8 3.8.5 5 1.4.5-.9.9-1.8 1.4-2.6.2-.4.5-.9.7-1.3.2-.5.2-.7.7-.5 1.1.5.2 2.3.5 3.1.6-.5 1.1-1.2 1.8-1.6.4-.3.4-.2.9 0l.9.3c1.2.4 2.5.8 3.5 1.6.8.6 1.5 2 2.7 1.9.3 0 .6-.1.8-.3.4-.3.3-.5.4-1l.3-2.1c.8.4 1.7.9 2.5 1.3.4.2 1.1.4 1.4.7.3.3 0 1.1 0 1.5-.1.4-.1.9-.2 1.3 0 .1-.1.5-.1.6.1.5-.1.2.2.4.5.3 1.2-.1 1.6-.5.4-.4.6-.8 1-1.2.4-.3.4-.3.7 0 .4.4.8 1 1.2 1.4.3.4.6.7.9 1.1.1.1.3.4.4.5.2.5.2.1 0 .5-.1.4-.5.7-.7 1-.1.2-.2.3-.3.5-.3.4-.4.3 0 .7.6.6 1.5 1.1 2.2 1.6.8.6 1.4 1.4 2 2.1 1.2 1.4 2.7 2.6 4.2 3.7 1.6 1.1 3.3 2.1 5 3 1.8 1 3.7 1.7 5.5 2.6 1.7 1 2.4 2.5 3.4 4s2.4 2.8 4.2 3.3c.9-4.3 2.2-8.7 2.6-13.1 0-.5 0-1 .1-1.4.1-.5.3-.6.6-.9.7-.7.7-1.9.9-2.8.4-2.1.9-4.3 1.3-6.4-.8 1.1-1.9.7-3 .4.1.7.4 1.8.3 2.6.1.3 0 .4-.3.5-.2.1-.4.2-.7.3-.4.2-.8.3-1.2.5-.5.2-.6.2-.6.8 0 .3 0 .6.1.8.2.4.6.6 1 .7.4.1 1.1 0 1.5.2.8.5-1 1.1-1.4 1.2-1.1.5-1.5 1.3-1.9 2.4-.3.9-.5 2-1.3 2.6-.3.2-1.3.8-1.6.6-.2-.1-.3-1.3-.3-1.5-.1-.5-.2-.9-.3-1.4l-.9-4.8c-.2-1.4-.7-2.7-2-3.4.6-.8 1.2-1.6 1.9-2.4.1-.2.3-.4.4-.6.3-.2.3-.4 0-.6-.1-.4-.5-.8-.7-1.1-.1-.2-.6-.8-.6-1 0-.2.7-.8.8-1 .4-.5.9-.9 1.5-1.2 1.1-.6 2.3-.5 3.4-.2.8.3 1.6.6 2.4.8.5.1.9.2 1.4.3.5.1 1 .4 1.1-.1l2.1 1.5c.3-.4.5-.9.8-1.3.1-.2.7-.8.7-1.1 0-.6-.9-1.6-1.1-2.2-.2-.4-.3-.7-.3-1.2 0-.2-.1-.4 0-.6.1-.4 0-.2.4-.3.6 0 1.3.2 1.9.2v-5.1c0-1.4.1-2.8-.2-4.2-.3-1.2-.4-2.8-.9-4-.4-.8-1.4-1.5-2-2.1-.7-.7-1.4-1.3-2.1-1.9-.7-.6-1.5-1.2-2.3-1.6-1-.4-2-.6-3-.9-2-.7-4-1.6-5.9-2.5-2-1-3.9-2-5.9-2.8-2-.8-4.1-1.4-6.2-2-4.1-1.2-8.1-2.7-12-4.6-4.1-2.1-7.9-4.7-11.7-7.2-4-2.5-8-5.1-11.9-7.6-4.4-2.8-8.8-5.5-13.3-8.1-1.1-.6-2.2-1.3-3.4-1.9-.5-.3-1.1-.6-1.6-1-.3-.2-1.5-.9-.5-1 .4 0 1.2.4 1.6.5.5.2 1.1.4 1.6.6l3.6 1.2c-.3-1.6-.7-3.2-1-4.8-.1-.7-.4-1.5-.5-2.2-.1-.8.5-1.5.7-2.2.4-1.5 0-3.1-.3-4.5-.1-.4-.1-.8-.3-1.2-.2-.3-.5-.5-.8-.8l-.9-.9c-.4-.4-.4-.5-.4-1.1 0-1.6 0-3.2-.3-4.7-.1-.8-.3-1.5-.7-2.3-.1-.2-.5-.8-.5-.9 0-.3.5-.7.7-.8.4-.3.8-.2 1.3-.1.3.1.9.4 1.2.3.2-.1.6-.7.7-.9.3-.3.5-.7.8-1 .6-.7 1.1-1.4 1.7-2.1l2.7 3.6c.1-1.3.2-2.5.2-3.8 1 .3 2 .6 2.9.9.4.1.7.2 1.1.3.3.1 1.1.5 1.4.4.3-.1.9-.7 1.2-.9.3-.3.4-.4.8-.3.7.1 1.6.7 2.3 1 .3-1.2.5-2.5.8-3.7.8.4 1.7 1.1 2.6 1.3.5.1.4.1.8-.3.3-.3.7-.6 1-.9.4-.4.4-.5 1-.3.2.1.4.2.6.2.4 0 .7-.4 1.1-.4.3-.1.7-.1 1-.1 1.4.1 2.8 1.2 3.8 1.9.4.3.7.5 1 .8.4.3.3.3.7.2.7-.3 1.4-1.2 2-1.6.5.8 1.1 1.6 1.6 2.3.3-.9.5-1.8.8-2.7.6.3 1.1.6 1.7.8.6.2.9 0 1.5-.3.3-.2.4-.3.7-.2.2.1.4.5.5.7.3.4.8 1.3 1.3 1.4.6.1 1.5-.4 2.1-.6.6-.2 1.2-.3 1.8-.5.8-.2 1.7-.4 2.6-.2.7.2 1.3.6 1.8 1.1.3.4.5.8.8 1.2.3.3.1.2.4.3.6.1 1.2-.1 1.8 0 .8.2 1.6 1.5 2.1 2.1.7-.7 1.7-1.1 2.7-1.1.5 0 .9.1 1.4.1.2 0 .5.1.7.2.4.2.3 0 .5.4.2.8 0 2.5.6 3 .2.2.8.3 1.1.4.5.2 1.1.4 1.6.6-.2-.4-1.1-1.4-1.1-1.8 0-.5 1.2-1 1.4-1.6.3-.8.3-1.5.8-2.2.5-.6 1.1-1 1.6-1.5.4-.3.6-.3.3-.9-.2-.3-.4-.6-.2-.9.2-.3.9-.5 1.2-.7.4-.3.9-.5 1.3-.8.7-.4 1.4-1 2.2-1.1.8-.1 1.7-.1 2.5-.2-.4-.5-.6-1.2-1.1-1.7-.4-.4-1-.6-1.1-1.2v-.7c.1-.2.1-.4.2-.5.1-.3.2-.4.5-.2.5 0 1.7.4 2.1.6.9.5 1.4 1.8 2.3 2.5 1 .8 2.3 1.3 3.6 1.4 0-.7.2-1.8 0-2.4-.2-.5-1-1-1.4-1.4-.6-.7-1.2-1.5-1.7-2.3.5-.3 1.3-.4 2.1-.5zM14.2 126.3c-.3-.1-1.3-.4-1.5-.7-.4-.6.6-.8 1-.9 1-.5 2-1.1 3.1-1.3.6-.1 1.3-.1 1.7.4.2.4.2 1.1.1 1.5-.5 1.1-2.1 1.6-3.1 2-1.3.6-2.7 1.2-4 1.9-.3.1-.7.5-1 .5-.3 0-.5-.2-.7-.6-.3-.3-.9-.9-.9-1.3.2-1 1.8-1.1 2.5-1.1.9.1 1.9.3 2.8-.4zM63.5 209c-.3-.5-.6-1.4-1-1.8-.4-.4-.2-.3-.8-.1-.3.1-.5.1-.8.2-.3.1-.6.2-.9.2-.5 0-.4 0-.6-.3-.4-.6-.8-1.2-1.1-1.8.9-.2 1.8-.3 2.7-.5.2 0 1-.3 1.2-.2.1.1.4.7.5.9.8 1.1 1.4 2 .8 3.4zm.6-37.8c-.9.9-2 1.6-3.1 2.4-.3.2-.5.3-.6.6 0 .2.1.5.1.7.1.7.2 1.1-.7 1.3-.9.1-1-.8-1.1-1.5-.1-1.4 0-2.8 0-4.2 0-.3-.1-.7 0-1 .1-.3.3-.5.5-.7.5-.5 1-1.1 1.5-1.6.2-.2.4-.6.6-.7.3-.1.4 0 .7.2.3.1 1.3.5 1.5.8.1.2 0 .7 0 .9.1.3.3.6.5.9.5.7.7 1.3.1 1.9zm3.8-62.4c-.6.9-.5 2.2-.6 3.2 0 1 .3 2.7-.2 3.6-1 1.6-3.3 3-5 3.7-1.7.7-3.6 1-5.5.8-.5 0-1.1-.1-1.6-.2-.3-.1-1.2-.4-1.5-.3-.4.1-.9.8-1.2 1.1-.5.5-1.1.9-1.6 1.4l-1.5-1.8c-.4-.4-.5-.4-.2-.8.2-.4.6-.7.9-1 .3.4.5.8.8 1.3.4-.3 1.7-.8 1.9-1.3.1-.1 0-.5 0-.6v-2.6c0-.3-.1-.7 0-1 .1-.4.5-.5.8-.8.9-.8 1.6-1.7 2.7-2.3.6-.3 1.1-.2 1.7-.4.3.1.4 0 .4-.4.1-.2.2-.5.2-.7.1-.4.2-.7.3-1.1.1-.3.2-1.2.5-1.4.2-.2.9-.2 1.2-.3.2-.1 1.1-.1 1.2-.3.1-.2.1-.9.2-1.2.4-1.2 1.4-2.1 2.4-2.8.4-.3.5-.4.9-.3.2.1.5.3.8.4.8.4 1.6.8 2.3 1.2-.3-1.5-1.2-3.3.8-4 .5 2.9.6 6.1-1.1 8.9zm82 84.6c.6.3 1.2.6 1.7.9.5.2 1.2.5 1.5.8.4.4.2 0 .3.4.1.2 0 .6 0 .8 0 .6.1 1.3 0 1.9-.1.3 0 .2-.2.4-.3.3-1.2.3-1.6.3-1.1-.1-1.8-1-2.9-1.2-.3-.1-1.4-.1-1.6-.4-.2-.2-.2-.9-.1-1.2.6-1.2 2.4-1.4 2.9-2.7zm-44.3-73.5c-1.1-.3-2.3-.3-3.3-1-.3-.2-.5-.4-.7-.7-.2-.3-.3-.4-.1-.7.2-.4.8-.8 1.2-1 .9-.4 1.7.1 2.4.7.4.4 1.3 1.1 1.5 1.6.1.3-.1.4-.4.7-.1.1-.3.4-.6.4zm29.8 22.2c1.2-.4 1.6.9 2.2 1.7 1 1.2 1.9 2.3 2.7 3.7.2-.8.3-1.6.5-2.4 1.4 2 2.9 3.8 4.2 5.9 1.3 2.1 2.3 4.5 3.4 6.7-.7 0-1.5-.2-2.1.1-.3.1-.6.5-.9.7-.4.4-.5.4-.5 1 .1.8.1 1.7.2 2.5l-1.5-1.2c-.2-.1-.4-.4-.6-.5-.5-.2-.3.1 0 .4.5.5 1 1.1 1.4 1.6.3.3.6.5.5.9 0 .4-.4.9-.5 1.2-1.8-1.1-3.7-2.2-5.5-3.3-.5-.3-1-.5-1.2-1-.1-.3-.2-.8-.3-1.1-.3-.8-.7-1.5-1.3-2.1-.5-.6-1.1-1-1.8-1.4-.5-.3-.6-.7-.9-1.2-.2-.5-.4-.9-.6-1.4-.5-1-.9-2-1.4-3-.2-.4-.5-.8-.3-1.2.1-.4.5-.8.7-1.2-.3-.1-2.1-.6-2.3-1-.1-.3.1-1.3.2-1.6.9.6 1.8 1.3 2.8 1.8 1 .5 2.1.8 3.1 1.2l-.6-2.1c-.1-.2-.1-.4-.2-.6.1 0 .3-.1.4-.2.2-.2.4-.2.5-.5.3-.7-.7-1.5-.3-2.4zm-30.1-27.6c1.6-1.6 3.8.3 5.3 1.2.9.5 1.8 1 2.6 1.6.7.5 1.5 1.6 2.3 1.9.4.1.9.1 1.3.2.5.2.9.4 1.3.7.8.6 1.5 1.4 2.5 1.9.8.4 1.6.3 2.3.9.7.5 1.3 1.3 1.8 2-1.9.5-3.6-.8-5.2-1.7l-6.6-3.3 1.2 3.6c.1.2.3.8.3.9 0 .2-.6.4-.7.5-.5.3-.9.7-1.4 1l1.1 1.1c.5.5.6.8 1.3.7.3 0 1.3-.4 1.5-.2.2.2.4 1.2.5 1.5.4-.2.8-.7 1.3-.8.2-.3.4-.3.6.1.1.1.2.2.2.3.3.4.7.7 1 1.1.1.1.6.8.7.8.6.1 1.3-1.1 1.9-1.1.3 0 1.2.8 1.4 1 .3.4.1 1 .4 1.4.1.2.4.5.6.5.4.1.4-.2.7-.5.8-1.2 1.5-.3 1.8.7.1.3.1.8.4 1 .4.4 1.7.1 2.2 0 .6 0 .6.1.9.6.2.3.4.7.6 1 .3.5 1.2 1.5 1.1 2 0 .5-.7 1.3-1 1.8-.4.6-.8 1.1-1.2 1.7-1 1.2-2.2 2.2-3.6 2.9l-.3-3.6c-1.3.4-2.2-.2-2.9-1.2-.2-.2-.3-.6-.5-.8-.3-.2-.2-.2-.7-.1-.6.1-1.1.1-1.7 0-1.1-.2-1.9-1-2.4-1.8-.8-1.3-1.5-2.7-2.4-3.9-.4-.6-.8-1.6-1.4-2.1-.3-.3-1-.2-1.5-.4-.9-.4-1.5-1.2-2.1-1.9-.6-.8-1.3-1.6-2.1-2.2-.5-.4-.5-.2-.6-.8v-1c-.4.2-.2.1-.5 0-.1-.1-.3-.4-.4-.6-.3-.3-.6-.6-.7-1-.2-.6-.2-1.2.4-1.6.5-.3 1.2-.1 1.7-.2s2.2-.9 1.2-1.2c-.3-.1-.8.3-1.2.3-.3 0-.4-.2-.6-.5-.3-.5-.4-1.1-.9-1.4-.6-.4-1-.2-1.3-.9-.3-.4-.9-1.7-.5-2.1zm-1-1.9c-.6-.1-1.5-.3-2.1-.2-.3-.1-.5 0-.5.3-.1.1-.1.2-.2.3-.2.3-.4.7-.5 1-.4.7-.7 1.3-1.1 2-.2.4-.7 1.9-1.1 2.1-.4.2-1.4 0-1.8 0-.3 0-.4 0-.6-.1-.4-.4-.7-1.9-1.3-1.6.1.4.3.8.4 1.1.1.2.2.4.2.6.2.2.2.4-.1.4-.3.3-.9.1-1.2-.2-.7-.5-1-1.5-2-1.4l.9-2.1c-.5-.2-1.1-.3-1.6-.5-.3-.1-.6-.1-.8-.3-.5-.2-.4-.2-.4-.8-.1-1.2-.3-2.3-.4-3.5-.1-.7-.2-1.4-.2-2-.1-.6-.3-1.5-.2-2.1.1-.5-.1-.3.4-.5.2-.1.5-.1.7-.1.5 0 1.1.1 1.6.3 1.1.5 2.1 1.3 3.2 1.9 1.1.6 2.2 1.2 3.4 1.7 1.1.5 2.3 1 3.4 1.5.4.2 1.2.4 1.4.7.2.4.4 1.1.5 1.5zm-5.9-11.9c-.2.4-.3.9-.5 1.3 1.5.4 2.9 1.1 3.5 2.5.3.6.3.8-.2 1.3-.4.4-.8.8-1.2 1.1-.3.3-.6.7-1 .7-.5 0-1.2-.5-1.7-.7-1.6-.6-3.5-1-4.8-2-1.3-1-1.9-2.4-1.9-4 .6.1 2.8.9 3.1.5.4-.5-.5-.7-.8-.8-.4-.1-1.4-.3-1.7-.6-.3-.3-.4-1.2-.6-1.6-.2-.5-.4-1.1-.6-1.6-.5-1.2-.9-2.4-1.4-3.7 1.6.1 3.3 1.2 4.5 2.2 1.9 1.7 3.7 3.4 5.3 5.4zm-6.9-86c-1.4-1-3-1.6-4.7-1.5h-.5c-.3.1-.5 0-.5-.3-.3-.3-.3-.9-.5-1.3 0-.3-.1-.4-.4-.3-.2 0-.4.1-.5.1-.4.1-.8.1-1.2.2.1-1.2.1-2.4.2-3.6 1 0 1.9.6 2.7 1.2l1.2.9c.6.3.9.4 1.5.1.7-.3 1.6-.7 2.3-.3.6.3.8 1.2.9 1.8h-1.9c1.3.9 3.1.4 4.3 1.5.4.4.6.6.2 1-.2.3-.5.6-.9.8-.8.6-1.5.2-2.2-.3zm24.6-2.6l-2.4-2.1c0 1.1-.3 2.1-1.4 2.5-.2.1-1.2.4-1.5.3-.3-.2-.5-1.8-.6-2.1-.1-.3-.2-.7-.3-1-.2-.7-.2-.7-1-.7-.9-.1-1.8-.1-2.7-.2-.9-.1-1.9-.3-2.7-.2-.5.1-.5.1-.8.5-.2.3-.5.5-.7.8l-2.4-3c-.3-.3-1.1-1-.5-1.3.4-.2 1 .3 1.4.5 1 .4 2.1.5 3.2.4 1.1-.2 2.1-.6 3.2-.3.5.1.9.3 1.3.6.4.2.8.8 1.3.9.5.2 1.2-.5 1.7-.7.4-.1.4-.1.8.1.3.1.5.3.8.4 1 .6 2.1 1.2 3.1 1.8.3.2.7.3 1 .6.4.3.3.1.1.6-.3.5-.7 1.1-.9 1.6zm32.3 16c2.7-.3 4.5.9 4.9 3.4-2.5 0-3.6-1.7-4.9-3.4z" fill="rgba(255,255,255,0.4)"/><path d="M165.5 124.6c-.9.2-1.9.4-2.8.6-.4.1-.7.2-1.1.2-.6.1-.8.3-1-.4-.7-1.6.1-3.1 1-4.4-2.4-.7-4.8-1.4-7.2-2-.5-.1-1-.3-1.5-.2-.4.1-.6.5-1.1.5-.5-.1-1.1-.5-1.5-.7l-2.1-.9c-2.2-.9-4.5-1.3-6.9-1.6-.6-.1-1.5 0-1.7-.5-.1-.3 0-1 0-1.4 0-1.1-.2-2.4 0-3.5.1-.6.1-.4.9-.7.5-.2 1.1-.3 1.6-.5.3-.1 1.9-.8 2.2-.7.3.1.5 1.1.7 1.4.2.4.3.9.8 1.1.7.2 1.2-.2 1.4-.8.2-.5.2-1.3.6-1.7.3-.4.4-.4 1-.2.4.1.8.2 1.1.4 1.6.9 2.7 2.4 4.2 3.3.2.1.4.2.7.3.4.2.3.2.6-.1.1-.1.2-.4.3-.5.3-.5.2-.5.7-.7.2-.1.5 0 .8-.1.4-.1.2 0 .4-.4.2-.5.3-1 .4-1.5l2.4 4.2c.4.7.5 1.1.6 1.9.1.6.2 1.2.4 1.8.2.6.4 1.1.8 1.6s1.1.8 1.4 1.3c.5.7.8 1.6 1.1 2.3.1 1 .4 1.8.8 2.6zM173.1 97l-1.2-.3c-.2 0-.3-.1-.5-.1-.3 0-.4-.1-.3-.4-.3-.7-.3-1.7-.5-2.4l-1.2-4.8c-.4-1.7-.3-3.5-.8-5.1-.5-1.5-1.5-2.9-2.4-4.2-.3-.4-.4-.6-.5-1-.1-.4 0-.9-.1-1.3v-.8c-.1-.4-.5-.7-.7-1.1-1.1-1.3-2.2-2.6-3.4-3.9-.3-.3-.5-.6-.8-.7-.3-.1-.6-.1-1-.2-.6-.2-1.1-.5-1.6-.9-1.2-.8-2.4-1.7-3.8-2.3.4-.7.7-1.4 1.1-2 .2-.4.5-.8.6-1.2.2-.5.1-.6-.1-1.1 1.4.2 3 .6 4.3 0 .8-.3.9-1.1 1.3-1.8.3-.7.7-1.5 1-2.2.2-.4.6-1.8.9-2 .7-.4.7 1.1.8 1.5.3 1.5.6 3 1 4.4.4 1.4.9 2.8 1.6 4.1.4.7.7 1.3 1.2 1.9.3.4.3.3 0 .8-.2.3-.5.6-.8.9-.2.3-.5.5-.5.8.1.3.5.8.6 1 .4.7.7 1.3 1 2 .6 1.4 1.1 2.9 1.6 4.4.5 1.6.9 3.2 1.5 4.8.3.8.5 1.7.9 2.5.2.6.3.6-.2.9-.4.2-.8.3-1.1.5.4.5 1 1.1 1.3 1.7.3.7.2 1.9.3 2.6.1 1.6.3 3.3.5 5zM44.1 233.6c-.7.3-1.5.7-2.2 1 0-1.9-.7-3.7-2.7-4.1-2.1-.5-2.1-2.1-2.5-3.8-.4-1.7-1.6-2.7-3.1-3.3-.6-.2-.7-.2-1-.8-.3-.4-.5-.9-.9-1.2-.7-.7-1.5-1.1-2.2-1.9-1.3-1.6-1.8-3.6-3.1-5.2-1-1.3-3-2.8-2.9-4.6 0-.4.1-.8.3-1.2.2-.6.5-.8.1-1.4-.7-1.1-1.6-2.2-2.1-3.3-.2-.4-.3-.2 0-.5s.5 0 .8.2l1.5.9 1.5.9c.7.4 1.2.5 1.4 1.3.5 1.8 1.7 3.2 2.6 4.8.4.8.8 1.7.9 2.6 0 .4.2 1.1 0 1.4-.2.3-.8.6-1.1.8 2.7 1.6 5.4 3.1 8.1 4.7-1 1.2-1.1 2.3-.3 3.6.3.5.7 1 1 1.5.5.7 1.5.8 2.3 1-.5.3-.1.5.1.9.4.6.8 1.3 1.2 1.9.7 1.2 1.5 2.5 2.3 3.8zM181.5 145.4c-.4-1.3-.8-2.7-1.1-4-1 .7-.9 1.6-.9 2.7v3.8c-2-1.4-1.6-3.8-2.2-5.9-.2-.7-.3-.9-.1-1.7.2-.6.3-1.3.5-1.9.4-1.5.7-3 1.1-4.6.9 1.9 2 3.9 2.9 5.8.8 2.1.7 3.9-.2 5.8zM197.8 124.6c-.6-.7-.9-1.1-1.2-2-.3-1-.6-2-.7-3-.2-1.2-.4-2.5-.9-3.6-.4-.9-1.1-1.6-1.9-2.2-.3-.2-.5-.4-.8-.7-.5-.4-.8-.4-.5-1 .4-.9.7-1.8 1.1-2.7 3.4 4.4 5.6 9.5 4.9 15.2zM189.6 159.3c-.8.5-1.6.8-2.4 1.3-.7.5-1.3 1-2 1.6.4.3 1 .6 1.4.9.3.3.3.1.3.6 0 .3 0 .6-.1.9 0 .3 0 1.9-.1 2.1-.1.1-.4 0-.4 0-.7.1-1.4 0-2.1 0-.8 0-1 .2-1.3-.6-.4-1-.2-2.1.1-3.1.2-.5.2-1 .6-1.3.6-.4 1.3-.7 1.9-1.1 1.1-.6 2.2-1.2 3.2-1.8.4-.2 1.1-.9 1.4-.4.3.3-.2.7-.5.9zM13 82.7c-3.6-1.9-4.6-4.1-3.5-8 1.2 2.8 2.3 5.1 3.5 8zM178.9 105.4c-.5-2.8-1-5.6-1.6-8.5.5.2 1 .3 1.4.7.5.6.6 1.9.6 2.6.2 1.8 0 3.5-.4 5.2zM104 154.9c-.6.9-1.2 1.8-1.9 2.7-.2.3-.5 1-.9 1-.3 0-.5-.3-.7-.5-.8-1.1-.6-2.7-2.1-3.3.5-.2 1.1-.3 1.6-.5.7-.2.7-.1 1.2.5.2.2.4.5.6.7.5.4.1.2.6.1.6-.2 1.2-.6 1.6-.7zM191.5 138.5c-.6 2.9-1.1 5.6-1.6 8.4-.6-6.8-.5-7.3 1.6-8.4zM177.2 157.8v7.7c-.8-.6-1.7-1.2-2.5-1.8 2.3-1.2.4-4.4 2.5-5.9zM12.7 159.5c-.4.7-.9 1.4-1.3 2.2-.2.3-.3.7-.7.9-.3.2-.8.4-1.1.5-.7.3-1.5.8-2.2 1-.3.1-.2.1-.4.1-.2-.1-.6-.6-.8-.7 1.2-.7 2.4-1.4 3.6-2.2.6-.4 1-.8 1.5-1.3.2-.2.4-.5.6-.6.5-.3.3-.3.8.1zM5.2 165.3c-.3 1.9-1.4 3.3-3.1 4.3v-2.8c0-.2-.1-1 0-1.2.3-.3 2.6-.2 3.1-.3zM193.3 132.4c-.7-2.7-.2-3.5 2.6-3.8.2 2.2-1.1 3-2.6 3.8zM115.5 237.7c-1.7-.1-2.8.7-2.9 2.4-.5-.6-1.4-1.3-.7-2.1.2-.2.4-.3.5-.4.3-.3.2-.2.2-.6 0-.6-.2-1.3-.4-1.9 1.2.9 2.2 1.7 3.3 2.6z" fill="rgba(255,255,255,0.4)"/></svg>
