<svg id="Layer_1" data-name="Layer 1" xmlns="http://www.w3.org/2000/svg" viewBox="0 0 56.41 68.11"><defs><style>.cls-1{fill:#a2a2a2}</style></defs><path class="cls-1" d="M43.92 67.61a12.25 12.25 0 0 1-2-.16 49.58 49.58 0 0 1-40.76-56.9A12 12 0 0 1 13 .5a12.17 12.17 0 0 1 2 .16 11.3 11.3 0 0 1 1.93.49 11.75 11.75 0 0 1 2.77 1.36l-.13 20.06A11.89 11.89 0 0 1 13 24.5h-.59l.1.58A38.38 38.38 0 0 0 31.85 52l.52.28.19-.56a11.91 11.91 0 0 1 4-5.6l18.92 6.28a11.69 11.69 0 0 1 .43 3.17 11.4 11.4 0 0 1-.16 2 12 12 0 0 1-11.83 10.04z"/><path class="cls-1" d="M13 1a11.62 11.62 0 0 1 1.89.16 10.85 10.85 0 0 1 1.86.47 11.27 11.27 0 0 1 2.42 1.15L19 22.3a11.38 11.38 0 0 1-6 1.7h-1.14l.2 1.17a38.88 38.88 0 0 0 19.55 27.27l1 .57.39-1.13a11.41 11.41 0 0 1 3.63-5.2l18.4 6.11a11.23 11.23 0 0 1 .34 2.79 10.8 10.8 0 0 1-.15 1.9 11.46 11.46 0 0 1-11.34 9.63A11.66 11.66 0 0 1 42 67 49.08 49.08 0 0 1 1.66 10.63 11.46 11.46 0 0 1 13 1m0-1A12.51 12.51 0 0 0 .67 10.47a50 50 0 0 0 41.21 57.47 12.5 12.5 0 0 0 14.37-10.3 11.76 11.76 0 0 0 .16-2.07 12.16 12.16 0 0 0-.52-3.57l-19.42-6.44a12.46 12.46 0 0 0-4.39 6A37.68 37.68 0 0 1 13 25a12.42 12.42 0 0 0 7-2.16l.13-20.6A12.25 12.25 0 0 0 17.06.68a11.76 11.76 0 0 0-2-.51A12.58 12.58 0 0 0 13 0z"/></svg>